<svg xmlns="http://www.w3.org/2000/svg" xmlns:xlink="http://www.w3.org/1999/xlink" width="149.994" height="139.472" viewBox="0 0 149.994 139.472">
  <defs>
    <clipPath id="clip-path">
      <rect id="Rectangle_25717" data-name="Rectangle 25717" width="149.994" height="139.472" fill="none"/>
    </clipPath>
  </defs>
  <g id="_404" data-name="404" transform="translate(-139 -323.528)">
    <g id="Group_39417" data-name="Group 39417" transform="translate(139 323.528)">
      <g id="Group_39417-2" data-name="Group 39417" clip-path="url(#clip-path)">
        <path id="Path_43434" data-name="Path 43434" d="M132,135.194a5.256,5.256,0,0,1-.921,2.609c-.324.705-1.094.77-1.754.828-1.573.138-3.153.265-4.731.3-11.018.232-22.036.086-33.055.045q-31.042-.112-62.084-.284a6.559,6.559,0,0,1-1.43-.092c-.8-.182-1.594-.434-1.856-1.405-.846-4.081-.138-8.137.2-12.2.422-5.119.87-10.235,1.3-15.353.266-3.15.57-6.3.866-9.443.074-.779.658-1.307.757-2.047.066-3.176.475-6.322.742-9.48.493-5.826,1.035-11.648,1.6-17.467.371-3.847.807-7.686,1.222-11.528a4.64,4.64,0,0,1,.19-.711c.126-1.24.977-1.425,1.949-1.434,4.259-.042,8.514.218,12.762.421,3.149.151,6.308.245,9.456.373,6.31.256,12.594.865,18.894,1.193,4.3.224,8.6.446,12.891.693,8.5.489,17.01.637,25.515.951q3.439.127,6.88.249a4.964,4.964,0,0,1,3.149.8,50.951,50.951,0,0,1,.769,6.016c1.067,9.437,2.09,18.878,3.129,28.317q.349,3.171.7,6.342a3.781,3.781,0,0,1,.745,2.047q1.434,12.912,2.554,25.854a11.5,11.5,0,0,1-.436,4.4" transform="translate(0.186 0.415)" fill="#eee"/>
        <path id="Path_43435" data-name="Path 43435" d="M29.478,97.862c-.26,2.435-.606,4.864-.749,7.305-.086,1.474-.318,2.93-.385,4.407-.08,1.762-.307,3.517-.489,5.272-.131,1.27-.21,2.555-.282,3.819-.1,1.717-.26,3.44-.425,5.143-.155,1.606-.272,3.228-.439,4.835a42.31,42.31,0,0,0-.347,7.52c.018.245,0,.493-.006.739a.774.774,0,0,1-.257-.667,4.069,4.069,0,0,0-1.085-3.1c-7.827-11.023-15.807-21.927-23.8-32.82-.4-.546-.794-1.1-1.214-1.681.556-.54,1.155-.36,1.694-.364,8.766-.036,17.53.1,26.293.31.62.015,1.279.15,1.492-.722" transform="translate(0 0.707)" fill="#818181"/>
        <path id="Path_43436" data-name="Path 43436" d="M124.487,62.248c-3.165-.581-6.4.059-9.56-.555a1.242,1.242,0,0,0-.287-.011c-3.635.185-7.256-.369-10.884-.282-3.925.095-7.829-.3-11.746-.386-3.375-.076-6.756-.372-10.132-.593-1.811-.12-3.632-.059-5.427-.265-3.219-.369-6.472-.276-9.674-.827a1.189,1.189,0,0,0-.286-.023c-2.537.163-5.043-.362-7.581-.336-3.293.032-6.589-.191-9.875-.359-2.386-.121-4.773-.078-7.153-.221s-4.759-.363-7.151-.307c-.776.017-1.4.121-1.739.916-.121-1.71.746-3.14,1.308-4.636a1.941,1.941,0,0,1,2.073-1.039q4.023.077,8.046.16c.526.011,1.053.056,1.578.065q12.356.236,24.711.468,13.934.287,27.869.616,8.4.21,16.8.557c2.244.1,4.483.378,6.72.62a2,2,0,0,1,1.963,2.007,30.077,30.077,0,0,1,.426,4.43" transform="translate(0.238 0.385)" fill="#818181"/>
        <path id="Path_43437" data-name="Path 43437" d="M131.261,134.891q-.017-1.112-.032-2.224a61.937,61.937,0,0,0-.531-6.91c-.141-1.12-.115-2.249-.272-3.382-.331-2.381-.357-4.806-.665-7.193-.283-2.191-.39-4.4-.753-6.585-.33-1.98-.417-4-.61-6.007,3.2-.281,6.321-1.028,9.481-1.543l9.488-1.542a.7.7,0,0,1,.142-.019c.506.017,1.132-.292,1.466.246.3.48-.19.916-.4,1.33-4.774,9.25-9.664,18.437-14.306,27.761q-1.509,3.031-3,6.068" transform="translate(0.927 0.718)" fill="#818181"/>
        <path id="Path_43438" data-name="Path 43438" d="M109.783,68.947a5.054,5.054,0,0,1,2.186-.2c.753.01,1.023-.327,1-1.075-.03-.889.023-1.783-.011-2.673-.03-.786.323-1.018,1.036-1.035,1.452-.034,1.544.022,1.558,1.529.006.693-.014,1.387.006,2.08.031,1.092.072,1.127,1.178,1.16.526.015,1.053-.007,1.578.008.274.008.626-.1.774.224.19.415-.211.6-.417.845-.576.666-1.344,1.1-1.973,1.71-.656.639-1.426,1.155-2.042,1.852-.365.414-.7.4-1.1.007a34.383,34.383,0,0,1-3.776-4.434" transform="translate(0.793 0.462)" fill="#818181"/>
        <path id="Path_43439" data-name="Path 43439" d="M42.911,62.8c.954,0,1.908,0,2.861,0,.548,0,.99.249.967.844-.056,1.486.477,2.918.319,4.407a7.056,7.056,0,0,1-.068.733c-.211.967-.388,1.181-1.343,1.131-1.817-.095-3.588.454-5.4.322-1.166-.086-1.215-.071-1.228-1.261q-.029-2.441,0-4.884c.013-1.26.045-1.283,1.323-1.3.858-.013,1.716,0,2.574,0Z" transform="translate(0.282 0.453)" fill="#818181"/>
        <path id="Path_43440" data-name="Path 43440" d="M56.186,66.5c0,.793-.024,1.586.007,2.377.029.755-.264,1.08-1.009,1.061-1.244-.032-2.49-.007-3.734-.005-.24,0-.479.018-.718.007-.4-.018-.834.425-1.211-.02a1.4,1.4,0,0,1-.112-1.409,10.953,10.953,0,0,0,.16-2.8c.021-.4-.018-.8.03-1.188.148-1.2.382-1.419,1.544-1.429,1.388-.012,2.777.007,4.165,0,.592,0,.885.257.876.886-.013.842,0,1.684,0,2.526Z" transform="translate(0.356 0.456)" fill="#818181"/>
        <path id="Path_43441" data-name="Path 43441" d="M140.047,102.527c-.129.1-.221.228-.326.244-.233.034-.3-.143-.258-.342.029-.13.124-.27.285-.187a1.606,1.606,0,0,1,.3.286" transform="translate(1.007 0.738)" fill="#42371f"/>
        <path id="Path_43442" data-name="Path 43442" d="M134.176,104.729l-.23.11c-.025-.079-.092-.185-.064-.229a.271.271,0,0,1,.225-.091c.118.014.138.106.07.21" transform="translate(0.967 0.755)" fill="#92774e"/>
        <path id="Path_43443" data-name="Path 43443" d="M42.9,63.393c.811,0,1.622,0,2.431,0,.5,0,.867.169.839.749A34.018,34.018,0,0,0,46.46,68.1c.073,1.11-.052,1.255-1.088,1.213-1.578-.064-3.125.239-4.689.3-1,.037-1.078-.069-1.1-1.071-.026-1.381.017-2.764-.013-4.144-.018-.787.33-1.048,1.039-1.02.761.03,1.526.007,2.288.007Z" transform="translate(0.286 0.458)" fill="#818181"/>
        <path id="Path_43444" data-name="Path 43444" d="M52.665,69.321c-.715,0-1.43.011-2.145,0a.57.57,0,0,1-.6-.78,14.1,14.1,0,0,0,.23-3.525c.05-1.116.2-1.291,1.253-1.321s2.1.011,3.147-.015c.685-.016,1.085.185,1.065.993-.031,1.233-.022,2.467,0,3.7.011.69-.278.989-.941.967s-1.335,0-2,0Z" transform="translate(0.36 0.46)" fill="#818181"/>
        <path id="Path_43445" data-name="Path 43445" d="M33.339,40.641c-.98-.316-1-.343-1.056-1.764a1.385,1.385,0,0,1,.837-.566c1.867-.14,3.733-.325,5.568-.565-.424.055-.824.118-1.229.157-1.184,0-2.338.344-3.522.323a5.211,5.211,0,0,0-1.359.091.693.693,0,0,1-.538-.2,2.251,2.251,0,0,1-.2-.582c-.216-3.415-.145-6.779,2.016-9.7a1.877,1.877,0,0,0,.355-1.5c-.187-1.338-.282-2.689-.429-4.034-.2-1.834-.433-3.664-.615-5.5-.311-3.142-1.2-6.217-1.114-9.4.013-.475-.168-1.05.367-1.351.562-.316,1.024.057,1.468.357,2.455,1.658,4.922,3.3,7.345,5A1.381,1.381,0,0,0,43,11.44,27.951,27.951,0,0,1,53.709,7.493a13.4,13.4,0,0,1,8.519,1.383c1.556.849,1.614.833,2.81-.435,1.84-1.952,3.919-3.647,5.826-5.528.933-.921,2-1.708,3.014-2.542.745-.611,1.415-.47,1.705.458a28.536,28.536,0,0,1,.911,3.709,26.871,26.871,0,0,1,.849,5.095c.3,2.036.041,4.1.337,6.145a10.722,10.722,0,0,0,1.541,4.867c.683.976,1.3,2,1.927,3.015a13.949,13.949,0,0,1,1.424,11.526,2.028,2.028,0,0,1-.661,1.157c-.284.184-.442-.118-.664-.175a4.249,4.249,0,0,0-.7-.046,2.153,2.153,0,0,1-.35-.043,3.679,3.679,0,0,0-.9-.1,35.388,35.388,0,0,0-4.1-.592,12.569,12.569,0,0,0-1.7-.189,7.976,7.976,0,0,0-1.342-.059,1.221,1.221,0,0,0-.382.036,1.421,1.421,0,0,1,.263-.032c.265,0,.527,0,.792,0,1.936.2,3.87.383,5.792.684.914.375,1.928.116,2.846.457.413,1.055-.037,1.949-1.307,2.6-1.1-.166-2.146-.563-3.238-.765-.127-.01-.255-.025-.381-.047-1.363-.406-2.794-.518-4.14-.954-.071,0-.144-.063-.213-.023a1.457,1.457,0,0,1,.186.026c1.069.354,2.181.453,3.252.738a2.507,2.507,0,0,1,.368.053c1.274.419,2.68.382,3.86,1.124.346.968-.217,1.509-.93,1.981a1.508,1.508,0,0,1-1.114-.194,27.313,27.313,0,0,0-6.242-2.164,32.449,32.449,0,0,1,5.811,1.932,2.29,2.29,0,0,1,.838.656c.287.647-.071,1.107-.474,1.532A23.359,23.359,0,0,1,75.55,44.9a20.558,20.558,0,0,0,3.79-3.711,30.752,30.752,0,0,0,2.846-4.471,13.411,13.411,0,0,0-.858-12.99c-.884-1.421-2.053-2.685-2.476-4.369a.754.754,0,0,1,.251-.548c.746-.528,1.021-1.089.36-1.911a.974.974,0,0,1,.018-1.276c.834-.8.695-1.794.706-2.773.006-.618-.012-1.238.019-1.856a1.692,1.692,0,0,1,.644-1.413,4.631,4.631,0,0,0,1.252-1.6c.622-1.018,1.726-.9,2.8-.539.079.084.1-.2.013-.063-.037.054-.058.019-.122-.028-.666-.5-.084-.578.246-.651a3.407,3.407,0,0,1,3.11,1.026c.26-.506.228-1.123.819-1.345.528-.2.955.138,1.428.194,1.518.178,3.052.662,4.491-.443.7-.537,1.509-.018,2.215.243.3.11.168.5-.025.752-.253.324-.651.5-.941.839a.583.583,0,0,0,.88.038c.738-.784,1.835-.686,2.7-1.162a.909.909,0,0,1,1.045.13c.358.31.033.587-.248,1.025a2.018,2.018,0,0,1,3.185.125c.316.34.44.816,1.143.4.556-.331,2.329.85,2.481,1.48a1.886,1.886,0,0,0,1.877,1.307,4.029,4.029,0,0,1,4,2.485,2.654,2.654,0,0,0,1.034,1.469c1.24.908,1.261,1.02.642,2.534.644-.24,1.231-.664,1.822-.026a1.446,1.446,0,0,1,.2,1.72,1.684,1.684,0,0,1,2.116-.171c.841.622.439,1.491.358,2.279.051.078.1.063.178-.017.31-.329.373-1.093,1.021-.838.486.19.347.783.282,1.224a3.96,3.96,0,0,0,.634,2.348c.949,1.961.957,1.957-1.175,2.057a44.516,44.516,0,0,0-7.022-.1,17.336,17.336,0,0,0-13.254,8.633,38.9,38.9,0,0,0-5.212,14.672c-.468,2.951.261,2.9-3.4,3.3A24.145,24.145,0,0,0,83.584,55a3.991,3.991,0,0,1-2.019.453,2.546,2.546,0,0,1-1.077.231c-1.442-.01-2.885-.005-4.327-.005a.971.971,0,0,1-.8-.243c.287-.547.87-.578,1.358-.765A25.328,25.328,0,0,0,87.932,46.52,26.694,26.694,0,0,0,92.6,36.446a11.941,11.941,0,0,0,.119-4.311,14.561,14.561,0,0,1-1.31,7.688A24.936,24.936,0,0,1,77.4,54.2a25.36,25.36,0,0,1-5.264,1.235,11.347,11.347,0,0,0-2.82.2,2.207,2.207,0,0,1-1.1.016,13.123,13.123,0,0,0-3.683-.2c-3.292.093-6.572-.212-9.853-.339-2.587-.1-5.184.03-7.755-.214-2.22-.211-4.431-.169-6.647-.208a5.945,5.945,0,0,1-3.5-1.667,7.724,7.724,0,0,1-2.275-2.56c-1.045-2.071-.32-3.214,1.049-4.294a10.143,10.143,0,0,1,.9-.561c-.524-.525-.976-1-1.446-1.444-.257-.246-.444-.489-.247-.854-.023-.641.559-.655.92-.781a28.5,28.5,0,0,1,3.3-1.061,41.081,41.081,0,0,0-4.184,1.358,4.785,4.785,0,0,1-.663.14.6.6,0,0,1-.322-.08c-.061-.547-.8-.854-.535-1.518a.538.538,0,0,1,.275-.452,4.756,4.756,0,0,0,1.219-.3c.236-.039.475-.028.712-.047.293-.043.564-.175.857-.221,1.154-.191,2.274-.535,3.413-.783.071-.047.181,0,.238-.092a1.589,1.589,0,0,1-.454.118c-1.023.3-2.062.522-3.1.741a3.76,3.76,0,0,0-.839.207,2.782,2.782,0,0,1-.5.04,1.634,1.634,0,0,0-.79.208,2.043,2.043,0,0,1-.333.032.806.806,0,0,1-.627-.18" transform="translate(0.229 0)" fill="#00bcbf"/>
        <path id="Path_43446" data-name="Path 43446" d="M78.751,19.258c-.7-.02-.863-.6-.97-1.084a39.777,39.777,0,0,1-.7-8.018c0-.128.11-.213.19-.3a23.762,23.762,0,0,1,6.43-3.1,28.113,28.113,0,0,1,6.787-1.122A32.428,32.428,0,0,1,100.63,6.71a37.009,37.009,0,0,1,15.53,8.784,36.9,36.9,0,0,1,5.144,6.291,34.355,34.355,0,0,1,5.025,12.892,29.313,29.313,0,0,1,.422,6.508c-.077,1.471-.363,2.929-.542,4.395a27.021,27.021,0,0,1-2.587,8.074c-1.684,3.613-3.578,7.134-6.6,9.892a45.313,45.313,0,0,0-6.921,8.183,47.484,47.484,0,0,0-3.4,6.572,48.466,48.466,0,0,0-3.081,10,49.8,49.8,0,0,0-1.318,14.812,31.471,31.471,0,0,0,2.623,10.6,24.681,24.681,0,0,0,3,5.515,17.666,17.666,0,0,0,1.428,1.536,4.512,4.512,0,0,1,.938,1.44,1.589,1.589,0,0,1-.073,1.427,2.8,2.8,0,0,1-3.643,1.372,7,7,0,0,1-3.057-2.443c-2.785-3.7-5.273-7.572-6.527-12.1a27.371,27.371,0,0,1-1.176-7.277c0-.945-.319-1.861-.236-2.822a69.513,69.513,0,0,1,.887-8.689c.224-1.04.288-2.115.5-3.16a62.57,62.57,0,0,1,3.545-10.776,99.222,99.222,0,0,1,10.913-19.867c.305-.439.609-.881.948-1.293a4.963,4.963,0,0,0,.887-1.4,27.379,27.379,0,0,0-3.918.048,5.1,5.1,0,0,1-.723.139c-1.94-.1-3.859.232-5.791.266-3.293.057-6.586.517-9.872.224-3.171-.282-6.337-.146-9.505-.22-.039-.568.44-.658.8-.783a32.319,32.319,0,0,1,9.138-1.993c.743-.034.765-.434.835-.937a43.227,43.227,0,0,1,5.7-16.469c2.835-4.752,6.81-7.93,12.388-8.72a23.76,23.76,0,0,1,9.689.442,4.508,4.508,0,0,1,.814.292,6.467,6.467,0,0,1,.692.476c-.557-.732-1.453-.826-2.226-1.159-.455-.2-1.1-.139-1.2-.848" transform="translate(0.557 0.04)" fill="#00bcbf"/>
        <path id="Path_43447" data-name="Path 43447" d="M120.05,25.8c.991.5,2.134.593,3.1,1.164.871.515.961.726.614,2-.548-1.431-1.746-1.573-2.879-1.777-5.165-.927-10.176-.651-14.842,2.035a15.049,15.049,0,0,0-4.472,4.376A37.423,37.423,0,0,0,95.288,48.11a22.559,22.559,0,0,0-.773,4.364,3.616,3.616,0,0,1-.276.891,3.393,3.393,0,0,0-2.643-.118A43.559,43.559,0,0,0,84.541,55a2.7,2.7,0,0,0-1.116.492c-.738-.083-1.516.21-2.218-.229A34.652,34.652,0,0,1,87.419,52.9a50.539,50.539,0,0,1,5.59-.844c.55-.059.78-.219.834-.8a40.314,40.314,0,0,1,2.98-12.032,32.342,32.342,0,0,1,4.855-7.833,14.148,14.148,0,0,1,3.692-3.215,19.937,19.937,0,0,1,6.7-2.383,25.51,25.51,0,0,1,4.918-.242,24.929,24.929,0,0,0,3.064.248" transform="translate(0.586 0.184)" fill="#095d5e"/>
        <path id="Path_43448" data-name="Path 43448" d="M71.842,55.209a15.227,15.227,0,0,1,2.448-.778,20.434,20.434,0,0,0,9.834-5.365,27.8,27.8,0,0,0,4.33-5.011A24.172,24.172,0,0,0,92.1,34.569a7.855,7.855,0,0,0-.318-3.968,2.424,2.424,0,0,1,1.106,2.187,14.248,14.248,0,0,1-.814,5.947,28.261,28.261,0,0,1-2.739,5.793,29.148,29.148,0,0,1-5.483,6.149,16.224,16.224,0,0,1-3.6,2.573,24.7,24.7,0,0,1-5.177,1.964l-3.23,0" transform="translate(0.519 0.221)" fill="#095d5e"/>
        <path id="Path_43449" data-name="Path 43449" d="M77.275,9.823c.328,2.495.279,5.026.739,7.509a3.431,3.431,0,0,0,.74,1.9,20.2,20.2,0,0,0,2.431,3.979c3.2,4.242,3.146,11.633-.532,16.28A9.827,9.827,0,0,0,79.246,41.5a.271.271,0,0,1-.228.083.645.645,0,0,1-.213-.138,3.435,3.435,0,0,1-.258-.283.422.422,0,0,1-.112-.352,3.553,3.553,0,0,0,1.072-1.734c.014-.041.028-.083.041-.124a.439.439,0,0,1,.239-.054l.093.069-.021-.116a.167.167,0,0,1-.206-.094.147.147,0,0,1,.073-.213c.959-.443,1.213-1.36,1.51-2.247l-.009.01a2.679,2.679,0,0,0,.7-1.545,13.622,13.622,0,0,0-1.95-11.731c-.665-.937-1.256-1.927-1.863-2.9a7.04,7.04,0,0,1-.939-2.779,39.042,39.042,0,0,1-.371-7.361c.007-.145.139-.285.213-.428l.257.26" transform="translate(0.554 0.069)" fill="#057d7f"/>
        <path id="Path_43450" data-name="Path 43450" d="M33.8,42.594l.239-.1c.135-.1.329-.081.45-.213a31.6,31.6,0,0,1,5.421-1.631c.268-.047.543-.226.791.046.038.375-.276.36-.487.429-1.406.462-2.817.91-4.223,1.373a4.017,4.017,0,0,0-1.243.522c-.352-.053-.6.257-.931.268-.162.111-.393.063-.53.232h0c-.294.144-.538.193-.516-.269l0,0a.912.912,0,0,1,.27-.163l.758-.492" transform="translate(0.237 0.293)" fill="#e1dfdf"/>
        <path id="Path_43451" data-name="Path 43451" d="M39.277,37.611a30.405,30.405,0,0,1-4.591.669,15.709,15.709,0,0,1-1.589.091c-.681-.015-1.423.443-2.017-.257a2.72,2.72,0,0,0,.967-.263.7.7,0,0,0,.531-.048c.382-.215.838.045,1.217-.187,1.326.022,2.617-.4,3.948-.288.465.346,1.113-.292,1.535.284" transform="translate(0.224 0.269)" fill="#e3e1e1"/>
        <path id="Path_43452" data-name="Path 43452" d="M33.337,40.35l.691-.053c.245.213.672-.1.854.3a2.44,2.44,0,0,1-1.236.252,1.487,1.487,0,0,0-.607.163l-.109.041-.116,0c-.3.069-.664.345-.758-.238a.206.206,0,0,1,.2-.045c.162-.1.363-.087.533-.165l.552-.249" transform="translate(0.231 0.291)" fill="#d1cfcf"/>
        <path id="Path_43453" data-name="Path 43453" d="M31.086,38.108c.618.516,1.365.021,2.017.257L32.3,38.6a10.947,10.947,0,0,1-2.245-.118,1.225,1.225,0,0,1,1.035-.377" transform="translate(0.217 0.275)" fill="#bea9ae"/>
        <path id="Path_43454" data-name="Path 43454" d="M32.061,40.806c.2.263.5.184.758.238a2.179,2.179,0,0,1-1.157.293c-.3.1-.395-.025-.355-.309a1.389,1.389,0,0,1,.753-.222" transform="translate(0.226 0.295)" fill="#beafb2"/>
        <path id="Path_43455" data-name="Path 43455" d="M31.314,41.025l.355.31a1.53,1.53,0,0,1-1.095.241.737.737,0,0,1,.74-.551" transform="translate(0.221 0.296)" fill="#b49ea2"/>
        <path id="Path_43456" data-name="Path 43456" d="M32.777,43.227c.1.225.324.218.516.269a.916.916,0,0,1-.683.281c-.305.1-.384-.032-.328-.311a.649.649,0,0,1,.5-.239" transform="translate(0.233 0.312)" fill="#c2b1b4"/>
        <path id="Path_43457" data-name="Path 43457" d="M32.283,43.464l.329.311c-.193.1-.409.322-.573.005-.085-.163.083-.269.244-.316" transform="translate(0.231 0.314)" fill="#b49da0"/>
        <path id="Path_43458" data-name="Path 43458" d="M33.281,43.5a.482.482,0,0,1,.53-.232.575.575,0,0,1-.53.232" transform="translate(0.24 0.312)" fill="#c2b1b4"/>
        <path id="Path_43459" data-name="Path 43459" d="M33.033,41a.559.559,0,0,1,.606-.163l-.379.233c-.078-.02-.153-.042-.228-.069" transform="translate(0.239 0.295)" fill="#beafb2"/>
        <path id="Path_43460" data-name="Path 43460" d="M32.784,40.6a.506.506,0,0,1-.533.165.69.69,0,0,1,.533-.165" transform="translate(0.233 0.293)" fill="#beafb2"/>
        <path id="Path_43461" data-name="Path 43461" d="M33.041,43.067a.225.225,0,0,1-.271.162.239.239,0,0,1,.271-.162" transform="translate(0.237 0.311)" fill="#c2b1b4"/>
        <path id="Path_43462" data-name="Path 43462" d="M74.421,16.943c-.773-.81-1.4-1.4-1.95-2.057a25.452,25.452,0,0,0-4.516-4.2c-.469-.341-.533-.641-.217-1.121a24.284,24.284,0,0,1,4.249-5.127c.062-.054.123-.111.188-.16.964-.719,1.442-.57,1.8.565A15.419,15.419,0,0,1,74.555,8a38.928,38.928,0,0,1,.041,8.148c-.017.155-.065.306-.175.8" transform="translate(0.488 0.028)" fill="#095d5e"/>
        <path id="Path_43463" data-name="Path 43463" d="M36,22.4a12.184,12.184,0,0,1-.9-3.066,32.829,32.829,0,0,1-.847-8.436c.086-1.713.548-1.955,2.054-1.069a23.107,23.107,0,0,1,4.968,4.21c.323.342.46.621.055,1.026a44.107,44.107,0,0,0-5,6.852L36,22.4" transform="translate(0.247 0.067)" fill="#095d5e"/>
        <path id="Path_43464" data-name="Path 43464" d="M71.818,46.7c-.807.242-1.606.515-2.421.718a57.562,57.562,0,0,0-7.151,2.358,13.549,13.549,0,0,0-3.092,1.79c-.923.687-1.1.765-1.931.05a31.857,31.857,0,0,0-4.152-2.654,20.369,20.369,0,0,0-4.476-1.753,33.707,33.707,0,0,0-5.827-1.59,1.573,1.573,0,0,1-.579-.211c-.312-.189-.206-.41.035-.565a1.422,1.422,0,0,1,.965-.114A34.119,34.119,0,0,1,49.6,45.925a19.227,19.227,0,0,1,7.55,4.3c.428.408.71.338,1.161.04a25.648,25.648,0,0,1,10.22-3.77,20.136,20.136,0,0,1,3.206-.026c.028.077.055.153.083.23" transform="translate(0.303 0.323)" fill="#095d5e"/>
        <path id="Path_43465" data-name="Path 43465" d="M50.324,28.244c.149,3.578-.587,6.76-3.275,9.216a3.289,3.289,0,0,1-4.865-.123A8.921,8.921,0,0,1,39.7,31.951c-.1-.647-.149-1.305-.189-1.961-.014-.242.052-.518.386-.508.265.008.284.251.321.449.158.849.277,1.706.476,2.545A7.924,7.924,0,0,0,42.659,36.4c1.337,1.346,2.6,1.375,3.968.039a9.389,9.389,0,0,0,2.419-4.377c.3-1.11.539-2.238.806-3.358.036-.152.028-.332.471-.455" transform="translate(0.285 0.204)" fill="#095d5e"/>
        <path id="Path_43466" data-name="Path 43466" d="M61.294,28.14a1.438,1.438,0,0,1,.589,1.223,20.328,20.328,0,0,0,.62,2.9,6.508,6.508,0,0,0,1.67,2.707,2.779,2.779,0,0,0,4.47-.368,9.824,9.824,0,0,0,1.748-5.329c.034-.629.005-1.261.005-2.171a2.213,2.213,0,0,1,.741,1.546A9.678,9.678,0,0,1,69.682,34.9a3.914,3.914,0,0,1-6.332.45c-1.759-2.045-2.107-4.431-2.056-7.21" transform="translate(0.443 0.196)" fill="#095d5e"/>
        <path id="Path_43467" data-name="Path 43467" d="M55.445,36.6c-.485-.381-1.127-.842-.962-1.436.188-.678,1.031-.5,1.611-.545,1.3-.109,1.4.055.844,1.23-.088.183-.208.351-.314.525-.136.145-.1.362-.21.518l0-.006c-.077.046-.1.1-.084.149s.044.081.068.081a.327.327,0,0,1,.038.2c-.089.655-.4.53-.616.118-.136-.262-.084-.624-.378-.832" transform="translate(0.393 0.25)" fill="#d59992"/>
        <path id="Path_43468" data-name="Path 43468" d="M77.027,40.578,70.279,38.3c.079-.4.321-.376.575-.324A21.978,21.978,0,0,1,77.58,40.28c.01.459-.246.427-.553.3" transform="translate(0.508 0.274)" fill="#e1dfdf"/>
        <path id="Path_43469" data-name="Path 43469" d="M79.022,41.276q.122,0,.245,0a13.351,13.351,0,0,0-1.174,1.234,11.839,11.839,0,0,1-4.053,3.1c-.223-.408.093-.48.261-.609a37.256,37.256,0,0,0,3.184-3.071,1.085,1.085,0,0,0,.3-.9.485.485,0,0,1,.42-.174,2.01,2.01,0,0,1,.436.167.891.891,0,0,1,.38.251" transform="translate(0.534 0.295)" fill="#095d5e"/>
        <path id="Path_43470" data-name="Path 43470" d="M78.3,35.887c-2.061-.3-4.151-.364-6.2-.781-.206-.19-.533.006-.725-.228l-.006-.007,0-.164a3.581,3.581,0,0,1,1.73-.051c.6.261,1.257-.028,1.859.2a24.129,24.129,0,0,1,4.331.558c.261.158.576.057.845.177a.085.085,0,0,1,.142.031.227.227,0,0,1-.086.352,5.509,5.509,0,0,1-1.893-.087" transform="translate(0.515 0.25)" fill="#dedddd"/>
        <path id="Path_43471" data-name="Path 43471" d="M55.449,36.582c.413.042.429.356.5.671.095.4.309.208.491.043a1.227,1.227,0,0,1,.47.714.622.622,0,0,0,.231.324l0-.005a1.908,1.908,0,0,1,.2.244l.3.273a.152.152,0,0,0,.242,0l.292-.276c.066-.087.131-.174.194-.263l-.015.018c.182-.121.139-.357.259-.51l-.009.015c.178-.118.131-.357.265-.5h0c.487-.015.389.262.274.548a.239.239,0,0,1-.068.218c-.06.106-.158.19-.168.322a.167.167,0,0,1-.079.171c-.06.088-.122.174-.185.26l.012-.015a.584.584,0,0,0-.251.28l.021-.022a.6.6,0,0,0-.28.25l.011-.007a.651.651,0,0,1-.757-.017l0,0c-.087-.079-.166-.165-.257-.24l0,.005c-.074-.08-.143-.162-.21-.248l-.744-.921c-.4.515-.763,1-1.158,1.462-.3.353-.65.687-1.138.236-.142-.659.686-.2.734-.634.274-.434.545-.871.824-1.3a.885.885,0,0,0,.007-1.1" transform="translate(0.389 0.264)" fill="#a47873"/>
        <path id="Path_43472" data-name="Path 43472" d="M34.868,40.6c-.3-.058-.632-.019-.854-.3a.135.135,0,0,1,.181-.028c.244-.164.562-.022.8-.2a.336.336,0,0,1,.362-.049c.277-.134.607-.035.876-.2a26.4,26.4,0,0,1,3.473-.753c.1.092.26.108.3.265a11.662,11.662,0,0,1-3.681.987c-.257.144-.571.027-.825.184a1.06,1.06,0,0,1-.635.09" transform="translate(0.246 0.282)" fill="#d3d1d1"/>
        <path id="Path_43473" data-name="Path 43473" d="M75.333,37.827a11.675,11.675,0,0,1-3.785-.93.311.311,0,0,1,.206-.3l.128-.025a36.828,36.828,0,0,1,4.481.993c-.252.45-.716.056-1.03.259" transform="translate(0.517 0.264)" fill="#cecccc"/>
        <path id="Path_43474" data-name="Path 43474" d="M79.734,38.344a1.441,1.441,0,0,0,.091.2c-.045.166-.2.172-.325.221a.079.079,0,0,0,.017.114c-1.293-.518-2.711-.538-4.017-1.009.281-.333.743.013,1.036-.277a23.524,23.524,0,0,1,3.2.755" transform="translate(0.545 0.271)" fill="#bfbcbd"/>
        <path id="Path_43475" data-name="Path 43475" d="M40.561,25.186A2.243,2.243,0,0,1,42.706,23.7a4.6,4.6,0,0,1-2.145,1.484" transform="translate(0.293 0.171)" fill="#095d5e"/>
        <path id="Path_43476" data-name="Path 43476" d="M70.379,23.208a2.832,2.832,0,0,1-1.923-.758c-.141-.1-.254-.277-.162-.423a.357.357,0,0,1,.544-.052,4.915,4.915,0,0,1,1.541,1.234" transform="translate(0.493 0.158)" fill="#095d5e"/>
        <path id="Path_43477" data-name="Path 43477" d="M54.623,38.973c-.073.41-.6.292-.733.634a1.669,1.669,0,0,1-.7-1.626c.484-.006.532.37.666.623.172.325.366.549.769.369" transform="translate(0.384 0.274)" fill="#866460"/>
        <path id="Path_43478" data-name="Path 43478" d="M79,41.28l-.495-.05c-.109-.056-.2-.149-.337-.146l-.4-.047-.785-.475c.211-.05.449-.049.553-.3l.9.327.315.269a.267.267,0,0,1,.189.179l.06.242" transform="translate(0.556 0.291)" fill="#c1bebf"/>
        <path id="Path_43479" data-name="Path 43479" d="M78.253,35.88l1.973-.03c.187-.192.471-.024.668-.18.255.045.3.239.321.452l.009-.01c-.992-.053-2.013.268-2.971-.232" transform="translate(0.565 0.258)" fill="#3e2c29"/>
        <path id="Path_43480" data-name="Path 43480" d="M39.229,37.612c-.5-.146-1.093.185-1.535-.284a4.405,4.405,0,0,1,1.77-.081c.121.008.22.1.169.234-.074.2-.253.134-.4.131" transform="translate(0.272 0.269)" fill="#f4f3f3"/>
        <path id="Path_43481" data-name="Path 43481" d="M74.95,34.854c-.625-.014-1.278.224-1.859-.2a5.135,5.135,0,0,1,1.859.2" transform="translate(0.528 0.25)" fill="#d6d4d3"/>
        <path id="Path_43482" data-name="Path 43482" d="M71.373,36.855a.591.591,0,0,1-.715-.415,1.266,1.266,0,0,1,1.23.137.381.381,0,0,1-.085.112c-.147.043-.315.035-.43.166" transform="translate(0.51 0.262)" fill="#c1bdbd"/>
        <path id="Path_43483" data-name="Path 43483" d="M33.784,37.612a1.92,1.92,0,0,1-1.219.188c.363-.341.8-.207,1.219-.188" transform="translate(0.235 0.271)" fill="#410d1a"/>
        <path id="Path_43484" data-name="Path 43484" d="M76.538,37.589c-.267.388-.709.118-1.037.277l-.1.006-.092-.052c.277-.353.7-.128,1.03-.259a.174.174,0,0,1,.2.028" transform="translate(0.544 0.271)" fill="#f1eff0"/>
        <path id="Path_43485" data-name="Path 43485" d="M59.1,37.881a.664.664,0,0,0-.274-.548c.087-.173.236-.213.352-.075.18.214.057.427-.078.622" transform="translate(0.425 0.268)" fill="#9e7571"/>
        <path id="Path_43486" data-name="Path 43486" d="M35.492,40.5a.9.9,0,0,1,.825-.184,1.3,1.3,0,0,1-.825.184" transform="translate(0.256 0.291)" fill="#d1cfcf"/>
        <path id="Path_43487" data-name="Path 43487" d="M35,40.074a.873.873,0,0,1-.8.2,1.1,1.1,0,0,1,.8-.2" transform="translate(0.247 0.289)" fill="#d1cfcf"/>
        <path id="Path_43488" data-name="Path 43488" d="M36.227,39.823c-.245.271-.567.206-.876.2a1.288,1.288,0,0,1,.876-.2" transform="translate(0.255 0.287)" fill="#d1cfcf"/>
        <path id="Path_43489" data-name="Path 43489" d="M57.365,39.305l.757.017a.456.456,0,0,1-.757-.017" transform="translate(0.414 0.284)" fill="#9e7571"/>
        <path id="Path_43490" data-name="Path 43490" d="M39.968,39.341l-.3-.265c.205-.109.455-.2.579.043.093.182-.139.2-.279.222" transform="translate(0.286 0.281)" fill="#e5e2e3"/>
        <path id="Path_43491" data-name="Path 43491" d="M80.88,35.669c-.157.3-.408.258-.667.18,0-.079,0-.156,0-.235l.663.054" transform="translate(0.579 0.257)" fill="#c9c7c7"/>
        <path id="Path_43492" data-name="Path 43492" d="M80.082,35.584a.839.839,0,0,1-.845-.177,1.112,1.112,0,0,1,.845.177" transform="translate(0.572 0.256)" fill="#d3d1d1"/>
        <path id="Path_43493" data-name="Path 43493" d="M71.382,34.877c.266,0,.537-.02.725.227-.263-.009-.563.1-.725-.227" transform="translate(0.515 0.252)" fill="#d6d4d3"/>
        <path id="Path_43494" data-name="Path 43494" d="M34.478,42.265a.427.427,0,0,1-.45.213.423.423,0,0,1,.45-.213" transform="translate(0.246 0.305)" fill="#410d1a"/>
        <path id="Path_43495" data-name="Path 43495" d="M56.4,36.874a.426.426,0,0,1,.21-.518.547.547,0,0,1-.21.518" transform="translate(0.407 0.263)" fill="#a47873"/>
        <path id="Path_43496" data-name="Path 43496" d="M71.368,36.852a.37.37,0,0,1,.431-.166l-.25.211-.1.008Z" transform="translate(0.515 0.265)" fill="#efeded"/>
        <path id="Path_43497" data-name="Path 43497" d="M58.829,37.33a.514.514,0,0,1-.266.5.568.568,0,0,1,.266-.5" transform="translate(0.423 0.27)" fill="#9e7571"/>
        <path id="Path_43498" data-name="Path 43498" d="M58.575,37.811a.5.5,0,0,1-.259.51.754.754,0,0,1,.259-.51" transform="translate(0.421 0.273)" fill="#9e7571"/>
        <path id="Path_43499" data-name="Path 43499" d="M58.6,38.842l.186-.26-.186.26" transform="translate(0.423 0.279)" fill="#9e7571"/>
        <path id="Path_43500" data-name="Path 43500" d="M58.332,38.3l-.194.263.194-.263" transform="translate(0.42 0.277)" fill="#9e7571"/>
        <path id="Path_43501" data-name="Path 43501" d="M57.313,38.561l-.2-.244.2.244" transform="translate(0.412 0.277)" fill="#9e7571"/>
        <path id="Path_43502" data-name="Path 43502" d="M58.862,38.414c.056-.108.112-.216.168-.322l-.168.322" transform="translate(0.425 0.275)" fill="#9e7571"/>
        <path id="Path_43503" data-name="Path 43503" d="M57.123,38.324c-.077-.108-.154-.216-.231-.324l.231.324" transform="translate(0.411 0.274)" fill="#9e7571"/>
        <path id="Path_43504" data-name="Path 43504" d="M56.9,38.824l.21.248-.21-.248" transform="translate(0.411 0.28)" fill="#9e7571"/>
        <path id="Path_43505" data-name="Path 43505" d="M57.85,38.834c-.084.119-.164.115-.242-.005a1.079,1.079,0,0,1,.242.005" transform="translate(0.416 0.28)" fill="#9e7571"/>
        <path id="Path_43506" data-name="Path 43506" d="M58.363,39.105l.251-.28a.352.352,0,0,1-.251.28" transform="translate(0.421 0.28)" fill="#9e7571"/>
        <path id="Path_43507" data-name="Path 43507" d="M56.388,37.095c-.1-.031-.13-.092-.084-.174.016-.028.064-.037.1-.055a.194.194,0,0,1-.015.23" transform="translate(0.406 0.266)" fill="#a47873"/>
        <path id="Path_43508" data-name="Path 43508" d="M71.374,34.707a.56.56,0,0,1,0,.164c-.1,0-.141-.051-.1-.135.01-.02.063-.02.1-.029" transform="translate(0.515 0.251)" fill="#d6d4d3"/>
        <path id="Path_43509" data-name="Path 43509" d="M57.107,39.065l.257.24a.334.334,0,0,1-.257-.24" transform="translate(0.412 0.282)" fill="#9e7571"/>
        <path id="Path_43510" data-name="Path 43510" d="M58.106,39.331l.28-.25a.337.337,0,0,1-.28.25" transform="translate(0.42 0.282)" fill="#9e7571"/>
        <path id="Path_43511" data-name="Path 43511" d="M109,10.646c-.2.243-.227.294-.253.3a1.646,1.646,0,0,1-1.409-.414.2.2,0,0,1,.081-.307c.573-.129.919.4,1.581.425" transform="translate(0.775 0.074)" fill="#181313"/>
        <path id="Path_43512" data-name="Path 43512" d="M79.193,11.863c0,.277-.1.515-.389.534-.262.017-.3-.234-.3-.443,0-.239-.026-.545.327-.53.216.009.331.216.358.439" transform="translate(0.567 0.082)" fill="#181313"/>
        <path id="Path_43513" data-name="Path 43513" d="M117.9,18.824c-.567-.108-.633-.523-.753-.978.611.22.611.22.753.978" transform="translate(0.846 0.129)" fill="#181313"/>
        <path id="Path_43514" data-name="Path 43514" d="M121.9,24.464c.2.031.41.1.47.3a.339.339,0,0,1-.305.435.386.386,0,0,1-.471-.412.334.334,0,0,1,.306-.327" transform="translate(0.878 0.177)" fill="#181313"/>
        <path id="Path_43515" data-name="Path 43515" d="M123.248,26.7l-1.029-.523a.225.225,0,0,1,.145-.291c.654-.189.647.281.884.814" transform="translate(0.883 0.187)" fill="#181313"/>
        <path id="Path_43516" data-name="Path 43516" d="M78.16,15.043a.5.5,0,0,1-.1-.589c.036-.1.162-.234.238-.229.216.016.187.215.177.367a.466.466,0,0,1-.319.451" transform="translate(0.563 0.103)" fill="#181313"/>
        <path id="Path_43517" data-name="Path 43517" d="M79.356,10.088a.222.222,0,0,1-.247.176c-.127-.007-.234-.087-.147-.215.049-.073.184-.1.286-.12.025,0,.072.1.108.158" transform="translate(0.57 0.072)" fill="#181313"/>
        <path id="Path_43518" data-name="Path 43518" d="M80.159,8.58c.094-.046.187-.129.28-.128a.145.145,0,0,1,.122.234.226.226,0,0,1-.3.094c-.046-.02-.061-.113-.1-.2" transform="translate(0.579 0.061)" fill="#181313"/>
        <path id="Path_43519" data-name="Path 43519" d="M113.851,14.3a1.689,1.689,0,0,1,.19.319c.016.048-.048.123-.077.185a1.354,1.354,0,0,1-.237-.217c-.021-.028.048-.12.123-.288" transform="translate(0.821 0.103)" fill="#181313"/>
        <path id="Path_43520" data-name="Path 43520" d="M77.974,10.7l-.132.111a1.332,1.332,0,0,1-.036-.205c0-.025.046-.051.072-.077l.1.171" transform="translate(0.562 0.076)" fill="#181313"/>
        <path id="Path_43521" data-name="Path 43521" d="M114.709,15.279c-.007-.09.033-.135.118-.121a.161.161,0,0,1,.087.058c.058.075.045.156-.042.168-.047.007-.108-.067-.162-.106" transform="translate(0.828 0.109)" fill="#181313"/>
        <path id="Path_43522" data-name="Path 43522" d="M78.335,17.183c.075-.025.12.011.128.108a.2.2,0,0,1-.017.11c-.056.1-.125.1-.151-.015a.528.528,0,0,1,.04-.2" transform="translate(0.565 0.124)" fill="#181313"/>
        <path id="Path_43523" data-name="Path 43523" d="M87.271,6.9c-.026.007-.066.027-.076.017a.228.228,0,0,1-.029-.084c.026-.007.067-.027.076-.018a.2.2,0,0,1,.029.085" transform="translate(0.629 0.049)" fill="#181313"/>
        <path id="Path_43524" data-name="Path 43524" d="M116.027,16.461l-.06.068c-.014-.027-.042-.055-.04-.081s.036-.046.056-.069l.044.082" transform="translate(0.837 0.118)" fill="#181313"/>
        <path id="Path_43525" data-name="Path 43525" d="M80.2,38.6c.2.027.31.177.213.325-.146.221-.344.118-.5-.036,0-.193.188-.2.292-.289" transform="translate(0.577 0.279)" fill="#9c8e8c"/>
        <path id="Path_43526" data-name="Path 43526" d="M80.205,38.6l-.292.289-.442-.133.325-.221Z" transform="translate(0.574 0.278)" fill="#c4bebd"/>
        <path id="Path_43527" data-name="Path 43527" d="M78.927,41.033c-.063-.059-.127-.119-.189-.179a.172.172,0,0,1,.189.179" transform="translate(0.569 0.295)" fill="#aea4a3"/>
        <path id="Path_43528" data-name="Path 43528" d="M78.16,41.078a.367.367,0,0,1,.337.146l-.337-.146" transform="translate(0.564 0.297)" fill="#aea4a3"/>
      </g>
    </g>
    <text id="_404-2" data-name="404" transform="translate(202 438.528)" fill="#00bcbf" font-size="30" font-family="WorkSans-Bold, Work Sans" font-weight="700"><tspan x="-29.04" y="0">404</tspan></text>
  </g>
</svg>
