<svg xmlns="http://www.w3.org/2000/svg" xmlns:xlink="http://www.w3.org/1999/xlink" width="134.201" height="109" viewBox="0 0 134.201 109">
  <defs>
    <clipPath id="clip-path">
      <rect id="Rectangle_25721" data-name="Rectangle 25721" width="54.403" height="48.21" fill="#00bcbf"/>
    </clipPath>
  </defs>
  <g id="_502" data-name="502" transform="translate(-147 -354)">
    <g id="Group_39428" data-name="Group 39428" transform="translate(-5 6.053)">
      <g id="Group_39427" data-name="Group 39427" transform="translate(132.782 -341.83)">
        <path id="Path_43762" data-name="Path 43762" d="M23.314,109.259c-.492-2.662-.661-5.385-.961-8.082q-1.422-12.8-2.763-25.62c-.316-3.023-.759-6.027-.9-9.077-2.3-10.641-2.658-21.634-3.737-32.5a12.82,12.82,0,0,1,.389-3.481,6.442,6.442,0,0,1,.744-2.849c.233-.7.851-.826,1.413-.936a42.262,42.262,0,0,1,6.148-.571c8.821-.411,17.647-.529,26.472-.7q18.957-.367,37.914-.734c6.212-.128,12.423-.31,18.634-.469a4.839,4.839,0,0,1,2.038.215,1.932,1.932,0,0,1,1.386,1.848c.806,5.066.039,10.113-.17,15.159-.17,4.109-.424,8.216-.659,12.323-.209,3.681-.475,7.357-.6,11.046A4.536,4.536,0,0,1,108,67.386q-.736,12.844-1.471,25.689c-.309,5.513-.622,11.026-1.118,16.519-.058.637-.169,1.266-.255,1.9a1.633,1.633,0,0,1-1.8.931,24.6,24.6,0,0,1-5.386-.239,7.436,7.436,0,0,0-1.668-.061,258.816,258.816,0,0,1-26.819-.925c-2.684-.264-5.39-.186-8.082-.271-4.321-.135-8.638-.43-12.964-.459-7.492-.05-14.983-.393-22.477-.295a2.982,2.982,0,0,1-2.652-.915" transform="translate(19.218 681.831)" fill="#eee"/>
        <path id="Path_43763" data-name="Path 43763" d="M108,67.386c.239-2.383.126-4.8.451-7.175a4.213,4.213,0,0,0,.043-.8c-.131-2.309.234-4.587.314-6.884.113-3.249.325-6.5.5-9.747.174-3.2.308-6.4.54-9.583.168-2.3.064-4.6.234-6.889-.042,1.864.893,3.136,1.72,4.479q10.62,17.256,21.466,34.289a5.127,5.127,0,0,1,.929,1.79,3.931,3.931,0,0,1-1.554.183c-8,.218-16,.387-24.005.283-.213,0-.426.036-.639.055" transform="translate(19.218 681.831)" fill="#818181"/>
        <path id="Path_43764" data-name="Path 43764" d="M23.314,109.259c5.167.628,10.352.032,15.519.336,5.089.3,10.183.084,15.263.366,2.478.138,4.969-.04,7.424.3,2.653.364,5.316-.041,7.937.341,1.827.267,3.679-.064,5.479.517a4.1,4.1,0,0,0,1.024.053c7.142.41,14.289.21,21.432.389,2.085.053,4.178.228,6.27.256a2.234,2.234,0,0,0,1.5-.321c.109,1.575-.688,2.823-1.006,4.245a1.585,1.585,0,0,1-1.444,1.156,7.166,7.166,0,0,1-1.154.051q-30.764-.01-61.529-.037c-3.6-.006-7.191-.152-10.786-.285-1.239-.046-2.476-.223-3.709-.391-.984-.134-1.527-.744-1.711-2.037a38.447,38.447,0,0,1-.506-4.936" transform="translate(19.218 681.831)" fill="#818181"/>
        <path id="Path_43765" data-name="Path 43765" d="M15.338,30.5a69.422,69.422,0,0,0,.342,7.188c.151,2.27.334,4.553.66,6.811.279,1.935.363,3.913.586,5.862.424,3.686.733,7.391,1.159,11.079a36.168,36.168,0,0,1,.6,5.037c-.4-1.167-.4-1.184-1.375-.955-4.16.981-8.318,1.979-12.479,2.955q-1.7.4-3.417.7C.966,69.26.4,69.518.093,68.965c-.287-.511.164-.986.347-1.436C3.411,60.223,6.413,52.938,9.366,45.62,11.391,40.6,13.35,35.543,15.338,30.5" transform="translate(19.218 681.831)" fill="#818181"/>
        <path id="Path_43766" data-name="Path 43766" d="M13.512,63.165c-.038.078-.064.2-.117.223s-.141-.046-.214-.075a1.031,1.031,0,0,1,.134-.234c.082-.079.157-.035.2.086" transform="translate(19.218 681.831)" fill="#876f43"/>
        <path id="Path_43767" data-name="Path 43767" d="M92.81,99.894c.219-.987.974-.848,1.48-.9,1.356-.138,2.718-.137,4.076-.36,1.009-.165,1.162.049,1.122,1.287-.06,1.827.4,3.6.276,5.43-.085,1.218-.074,1.288-1.03,1.3-1.668.024-3.336-.013-5,.015-.646.011-.954-.286-.92-1.124.058-1.446-.4-2.844-.262-4.3.045-.467-.075-.977.265-1.352.75.5.669,1.412.708,2.255.153,3.3.15,3.313,2.7,3.3,2.791-.019,2.551.32,2.562-3.2.008-2.484-.03-2.451-2.049-2.241-1.3.136-2.628.5-3.925-.105" transform="translate(19.218 681.831)" fill="#818181"/>
        <path id="Path_43768" data-name="Path 43768" d="M87.105,106.658c-.642,0-1.284-.018-1.926.005-.585.022-.858-.276-.861-1.035a32.09,32.09,0,0,0-.221-4.955c-.163-1.015.152-1.371.978-1.413.854-.043,1.712-.013,2.567-.016.343,0,.685-.013,1.027-.013.458,0,.942-.565,1.35-.112.426.474.206,1.217.212,1.841a26.969,26.969,0,0,1-.23,4.793c-.114.676-.337.914-.842.9-.684-.013-1.369,0-2.054,0Z" transform="translate(19.218 681.831)" fill="#818181"/>
        <path id="Path_43769" data-name="Path 43769" d="M30.52,102.142c-.862,0-1.586.005-2.309,0-.206,0-.447.044-.571-.238a.618.618,0,0,1,.2-.688,26.361,26.361,0,0,1,2.51-2.973,6.582,6.582,0,0,0,.773-.837c.895-1.113.781-1.149,1.671-.03.724.911,1.453,1.816,2.17,2.736a3.83,3.83,0,0,1,.469.755c.287.628.187.887-.362.95a5.484,5.484,0,0,1-1.025.011c-.644-.046-.948.278-.922,1.12.029.962-.018,1.929.009,2.891.023.812-.23,1.145-.9,1.162-1.13.03-1.272-.043-1.428-.968a24.923,24.923,0,0,1-.287-3.887" transform="translate(19.218 681.831)" fill="#818181"/>
        <path id="Path_43770" data-name="Path 43770" d="M92.81,99.894a3.857,3.857,0,0,1,2.021-.315c1.125.168,2.2-.344,3.312-.326,1.026.016,1.078.069,1.093,1.372.016,1.448-.01,2.9.006,4.345.008.753-.259,1.056-.851,1.048-1.413-.02-2.826-.014-4.239,0-.5,0-.77-.2-.837-.9a22.777,22.777,0,0,1-.249-3.5,3.581,3.581,0,0,0-.253-1.715Z" transform="translate(19.218 681.831)" fill="#818181"/>
        <path id="Path_43771" data-name="Path 43771" d="M89.717,102.72c0,.695,0,1.391,0,2.086,0,.78-.284,1.2-.926,1.2-1.068,0-2.135.005-3.2,0-.371,0-.741-.118-.72-.669.057-1.452-.361-2.841-.3-4.3.033-.795.228-1.159.9-1.162a10,10,0,0,0,3.435-.263c.49-.174.822.148.817.856,0,.748,0,1.5,0,2.246Z" transform="translate(19.218 681.831)" fill="#818181"/>
      </g>
      <text id="_502_" data-name="502!" transform="translate(214 424.089)" fill="#00bcbf" font-size="30" font-family="WorkSans-Bold, Work Sans" font-weight="700"><tspan x="-31.86" y="0">502!</tspan></text>
    </g>
    <g id="Group_39430" data-name="Group 39430" transform="translate(182 354)">
      <g id="Group_39429" data-name="Group 39429" clip-path="url(#clip-path)">
        <path id="Path_43945" data-name="Path 43945" d="M86.237.208C98.2-1.044,93.771,3.68,95.195,5.95c1.462,2.332,4.186-2.838,7.12-2.067.346.091,4.705,4.641,4.823,5.283.781,4.254-8.086,5.392,3.675,8.268,2.156,13.834-6.9,6.547-5.972,11.484.059.316,2.719,3.144,2.756,3.675.078,1.115-4.885,6.089-5.283,6.2-2.732.773-4.72-2.655-5.512-2.756-2.489-.316-1.019,4.377-3.215,6.431-12.919,1.148-6.085-3.186-10.795-6.661a23.955,23.955,0,0,1,.689-6.2c1.092-1.437,13.305-1.335,12.632-8.957-.642-7.275-13.826-7.114-12.4,2.3-3.235,6.9-9.865,4.713-15.159,1.838-1.207-11.557,3.645-7.426,5.742-8.957,2.227-1.626-2.62-4.1-2.067-6.661.088-.407,4.4-5.1,5.283-5.283,4.03-.832,6.366,8.009,7.579-2.526Z" transform="translate(-56.743 0)" fill="#00bcbf"/>
        <path id="Path_43946" data-name="Path 43946" d="M6.527,155.268c1.4-.066,2.48,7.139,2.986,8.5-13.174-.327-11.186.569-2.986-8.5" transform="translate(0 -128.877)" fill="#00bcbf"/>
        <path id="Path_43947" data-name="Path 43947" d="M87.426,233.647c1.4-.066,2.48,7.139,2.986,8.5-13.174-.327-11.186.569-2.986-8.5" transform="translate(-67.149 -193.934)" fill="#00bcbf"/>
        <path id="Path_43948" data-name="Path 43948" d="M85.544,174.188c14.511,4.7,11.217,2.825.459,10.106-1.214-.3-.678-8.442-.459-10.106" transform="translate(-70.749 -144.582)" fill="#00bcbf"/>
      </g>
    </g>
  </g>
</svg>
