<svg id="Oops_your_cart_is_empty_" data-name="Oops! your cart is empty!" xmlns="http://www.w3.org/2000/svg" xmlns:xlink="http://www.w3.org/1999/xlink" width="162.305" height="141.781" viewBox="0 0 162.305 141.781">
  <defs>
    <clipPath id="clip-path">
      <rect id="Rectangle_25655" data-name="Rectangle 25655" width="162.305" height="141.781" fill="#818181"/>
    </clipPath>
  </defs>
  <g id="Group_39271" data-name="Group 39271" transform="translate(0 0)" clip-path="url(#clip-path)">
    <path id="Path_43325" data-name="Path 43325" d="M100.039,42.925c.671-.714.265-2.588.163-3.461a19.892,19.892,0,0,0-1.183-4.734A31.163,31.163,0,0,0,97.139,30.8c-.881-1.612-.644-2.675-.454-4.439a50.741,50.741,0,0,0-.094-9.7A30.214,30.214,0,0,0,94.4,7.781C93.428,5.435,92.008,2.028,89.8.6,84.94-2.551,80.034,7.642,78.166,10.68c-.6.968-.973,2.057-1.6,3.008-.662,1.008-2.232,2.493-3.551,2.364a86.226,86.226,0,0,0-10.19-.429,1.92,1.92,0,0,1-1.644-1.1c-.435-.687-.857-1.349-1.328-2.016-.891-1.26-1.794-2.511-2.739-3.732C55.51,6.7,54.032,4.275,51.8,2.8,43.109-2.96,41.705,21.566,41.691,25.9a17.729,17.729,0,0,1-.088,3.924,22.049,22.049,0,0,1-1.593,3.585A27.226,27.226,0,0,0,37.7,41.041c-.082.7-.439,2.469.006,3.106.4.565,1.315.349,1.933.347a11.769,11.769,0,0,1,1.617.135,8.443,8.443,0,0,0,1.951.093,14.662,14.662,0,0,1,3.9.166,17.433,17.433,0,0,0-5.3.025,19.047,19.047,0,0,0-2.052.767c-.616.158-1.4-.234-1.625.5-.485,1.611,2.131,2.084,3.07,1.895.2-.041.417-.078.632-.112a2.154,2.154,0,0,0-.845.365c-.019.013-.879.768-.873.752-.631,1.66,3.464.573,5.394.049-.813.237-1.684.467-2.483.693-1.284.362-1.971.737-1.038,2.042,1.532,2.145,4.019,3.67,6.234,5.02,8.642,5.269,19.465,6.222,29.2,4.012a38.522,38.522,0,0,0,14-6.292,38,38,0,0,0,3.1-2.483c.607-.542,1.975-1.432,1.928-2.363-.023-.451-.384-.819-.916-1.126,1.251.117,2.35-.136,2.866-1.225.4-.839-.018-1.219-.673-1.408a1.713,1.713,0,0,0,1.69-.8c.469-.953-.489-.6-1.022-.78a8.384,8.384,0,0,0-1.946-.776c.024,0,.049,0,.073.006,1.075.124,2.689.169,3.52-.716M46.312,47.061a5.52,5.52,0,0,1-1.426.42,8.146,8.146,0,0,0,1.426-.42m49.227-1.329c-1.684-.23-3.368-.454-5.055-.657,1.69.064,3.393.413,5.068.642.091.012.2.029.3.048-.113-.01-.22-.019-.315-.033" transform="translate(7.638 0)" fill="#00bcbf"/>
    <path id="Path_43326" data-name="Path 43326" d="M89.266,36.95c-2.894-.336-5.827-.232-8.919-.716a1.91,1.91,0,0,1,1.715-.6c1.889-.057,3.771.1,5.655.23.891.059,1.783.1,2.675.146l3.625.5c-.466.841-1.2.319-1.829.366l-2.923.075" transform="translate(16.372 7.259)" fill="#dfd7cf"/>
    <path id="Path_43327" data-name="Path 43327" d="M90.042,39.067c-2.623-.336-5.25-.654-7.868-1.02a4.353,4.353,0,0,1-2.429-.7c.423-.612.993-.421,1.5-.354,2.474.331,4.945.691,7.418,1.034.444.061.892.09,1.339.135l2.123.574c.207.1.456.067.657.19a.313.313,0,0,1,.249.041.261.261,0,0,1,0,.37A.742.742,0,0,1,92.4,39.3l-.556-.077c-.3-.177-.67-.014-.976-.183l-.825.022" transform="translate(16.249 7.521)" fill="#e1d9d0"/>
    <path id="Path_43328" data-name="Path 43328" d="M87.513,41.471c-1.56-.463-3.124-.917-4.679-1.4a6.5,6.5,0,0,1-2.032-.862c-.037-.559.265-.522.637-.362l6.589,1.7L92.3,41.955c.136.047.242.172.4.165a.226.226,0,0,1,.211.054c.041.577-.286.466-.625.336l-4.774-1.039" transform="translate(16.464 7.895)" fill="#e3dad2"/>
    <path id="Path_43329" data-name="Path 43329" d="M41.207,41.657c1.679-.3,3.287-.917,4.991-1.113.306-.088.655-.268.657.3L41.8,42.582c-1.458.466-2.914.94-4.377,1.393a3.29,3.29,0,0,1-1.94.155c1.967-1.245,3.942-1.65,5.724-2.473" transform="translate(7.23 8.241)" fill="#e2d6cf"/>
    <path id="Path_43330" data-name="Path 43330" d="M45.378,39.657l-4.2,1.055c-1.475.226-2.946.466-4.423.672a2.118,2.118,0,0,1-1.524-.159c.3-.565.8-.592,1.247-.726,1.05-.315,2.179-.24,3.207-.657,1.274,0,2.479-.556,3.764-.468.654.014,1.4-.569,1.924.284" transform="translate(7.18 7.986)" fill="#e3d9d1"/>
    <path id="Path_43331" data-name="Path 43331" d="M47.281,37.406l-3.455.1c-1.531.332-3.114-.019-4.644.341l-1.117.12a20.387,20.387,0,0,1-3.195.166c-.259.014-.483-.047-.468-.383a4.29,4.29,0,0,1,1.641-.135c.924-.294,1.912.03,2.832-.286a16.186,16.186,0,0,1,2.876-.164,19.047,19.047,0,0,1,4.412-.106,2.214,2.214,0,0,1,1.107.036l.112.149-.1.158" transform="translate(7.01 7.536)" fill="#e6d7d1"/>
    <path id="Path_43332" data-name="Path 43332" d="M34.592,37.623c.649.4,1.355.128,2.034.17.542.033,1.086.033,1.629.047-1.524.394-3.09.158-4.784.486.266-.752.707-.7,1.121-.7" transform="translate(6.82 7.666)" fill="#bca2a3"/>
    <path id="Path_43333" data-name="Path 43333" d="M38.373,37.766a13.739,13.739,0,0,1,4.644-.341c-.921.354-1.921.116-2.853.386l-1.791-.046" transform="translate(7.819 7.62)" fill="#cfc6c0"/>
    <path id="Path_43334" data-name="Path 43334" d="M44.919,37.084a33.943,33.943,0,0,1-4.412.107,1.05,1.05,0,0,0,.15-.213c1.419.085,2.852-.35,4.261.106" transform="translate(8.254 7.513)" fill="#cfc6c0"/>
    <path id="Path_43335" data-name="Path 43335" d="M90.183,36.73c.584-.252,1.284.079,1.83-.366a1.034,1.034,0,0,1,1.144.489,10.09,10.09,0,0,1-2.973-.123" transform="translate(18.376 7.405)" fill="#b39596"/>
    <path id="Path_43336" data-name="Path 43336" d="M90.258,38.957l.6-.093c.108-.081.215-.163.321-.247a3.5,3.5,0,0,1,1.635.482,3.763,3.763,0,0,1-2.558-.142" transform="translate(18.392 7.869)" fill="#a6888a"/>
    <path id="Path_43337" data-name="Path 43337" d="M91.958,41.858c.378.124.837.09,1.191.614A2.635,2.635,0,0,1,91.3,42.2c.1-.343.471-.158.654-.337" transform="translate(18.605 8.529)" fill="#a48688"/>
    <path id="Path_43338" data-name="Path 43338" d="M38.6,37.276a5.513,5.513,0,0,1-2.832.286,6.781,6.781,0,0,1,2.832-.286" transform="translate(7.288 7.591)" fill="#cfc6c0"/>
    <path id="Path_43339" data-name="Path 43339" d="M92.154,41.913c-.149.246-.415.264-.654.337a1.956,1.956,0,0,1-1.158-.319c.224-.084.495-.078.625-.335.441-.06.791.215,1.187.317" transform="translate(18.409 8.474)" fill="#c2abab"/>
    <path id="Path_43340" data-name="Path 43340" d="M88.984,38.695a.9.9,0,0,1,.976.182,1.192,1.192,0,0,1-.976-.182" transform="translate(18.132 7.872)" fill="#c0a9a7"/>
    <path id="Path_43341" data-name="Path 43341" d="M90.684,38.617a.555.555,0,0,1-.657-.19.682.682,0,0,1,.657.19" transform="translate(18.345 7.826)" fill="#c0a9a7"/>
    <path id="Path_43342" data-name="Path 43342" d="M91.078,38.619a.337.337,0,0,1-.32.247.8.8,0,0,0,.025-.25l.295,0" transform="translate(18.494 7.868)" fill="#c0a9a7"/>
    <path id="Path_43343" data-name="Path 43343" d="M90.755,41.579a.347.347,0,0,1-.4-.165.348.348,0,0,1,.4.165" transform="translate(18.411 8.436)" fill="#c2abab"/>
    <path id="Path_43344" data-name="Path 43344" d="M86.4,21.875c-1.8-.872-3.466-1.777-5.209-2.5a38.424,38.424,0,0,0-8.052-2.3c-1.3-.231-1.37-.379-.714-1.548,2.4-4.269,4.75-8.564,7.563-12.582.578-.823.805-.832,1.4.016A22.164,22.164,0,0,1,83.7,7.483a40.32,40.32,0,0,1,2.912,12.039,3.91,3.91,0,0,1-.219,2.353" transform="translate(14.675 0.473)" fill="#095d5e"/>
    <path id="Path_43345" data-name="Path 43345" d="M43.3,19.8a39.949,39.949,0,0,1,3.74-15.088c.953-1.977,1.018-1.938,2.355-.277,2.825,3.515,5.157,7.367,7.669,11.1.083.124.164.252.236.383.561,1.008.534,1.14-.572,1.424a47.05,47.05,0,0,0-7.758,2.758c-1.373.622-2.576,1.53-3.921,2.2-1.3.645-1.658.442-1.711-1.046-.014-.4-.022-.8-.039-1.446" transform="translate(8.822 0.653)" fill="#095d5e"/>
    <path id="Path_43346" data-name="Path 43346" d="M75.243,21.226a8.649,8.649,0,1,1-8.1,8.874c-.111-3.96,3.229-9.026,8.1-8.874" transform="translate(13.681 4.324)" fill="#e8cf4f"/>
    <path id="Path_43347" data-name="Path 43347" d="M61.508,29.6a8.509,8.509,0,0,1-8.277,8.853,8.614,8.614,0,0,1-8.558-8.311c-.17-3.874,3.082-9.057,8.129-9.023A8.687,8.687,0,0,1,61.508,29.6" transform="translate(9.102 4.304)" fill="#e8cf4f"/>
    <path id="Path_43348" data-name="Path 43348" d="M63.078,34.872a.28.28,0,0,1,.118-.213,3.583,3.583,0,0,1,.215-.339c.033-.742-.673-1.05-.953-1.614-.447-.9-.364-1.193.583-1.283.728-.069,1.75-.319,2.1.28.413.717-.488,1.374-.874,2.031-.132.574-.042,1.272-.826,1.483l-.011.016c-.278.036-.448-.033-.348-.36" transform="translate(12.674 6.38)" fill="#e8cf4f"/>
    <path id="Path_43349" data-name="Path 43349" d="M63.227,34.806q.413-.742.826-1.484a3.24,3.24,0,0,0,.083.881c.231.595.366,1.436,1,1.572.654.141.813-.72,1.154-1.174a.564.564,0,0,1,.559-.288,2.446,2.446,0,0,1-1.259,2.168c-.55.368-.892-.07-1.237-.465-.361-.414-.284-1.242-1.122-1.211" transform="translate(12.884 6.79)" fill="#9e7463"/>
    <path id="Path_43350" data-name="Path 43350" d="M63.345,34.269l.348.36a2.836,2.836,0,0,1-.857,1.145c-.908.909-1.172.844-1.847-.4-.1-.317-.268-.669.318-.65.573,1.1.573,1.1,1.333.293l.705-.743" transform="translate(12.407 6.983)" fill="#9e7463"/>
    <path id="Path_43351" data-name="Path 43351" d="M43.987,39.7c-.58-.5-1.3-.1-1.924-.284a9.637,9.637,0,0,1,3.038-.38c.344-.152.412.024.376.319a3.219,3.219,0,0,1-1.49.345" transform="translate(8.571 7.943)" fill="#cec6c1"/>
    <path id="Path_43352" data-name="Path 43352" d="M45.394,37.088a2.8,2.8,0,0,1,1.6.138,1.929,1.929,0,0,1-1.888.17.087.087,0,0,1-.025-.142.821.821,0,0,0,.309-.166" transform="translate(9.181 7.545)" fill="#b6afab"/>
    <path id="Path_43353" data-name="Path 43353" d="M45.043,40.9c-.159-.235-.441-.2-.66-.3a3.591,3.591,0,0,1,2.009-.391,1.821,1.821,0,0,1-1.349.695" transform="translate(9.044 8.192)" fill="#aaa49f"/>
    <path id="Path_43354" data-name="Path 43354" d="M44.963,39.389l-.376-.32a1.744,1.744,0,0,1,1.306-.225.828.828,0,0,1-.931.545" transform="translate(9.085 7.909)" fill="#b2aba8"/>
    <path id="Path_43355" data-name="Path 43355" d="M61.337,34.723c-.261.141-.26.409-.319.65a.992.992,0,0,1-.271-.649c0-.189-.018-.427.207-.466.337-.057.359.221.383.465" transform="translate(12.378 6.979)" fill="#71554d"/>
    <path id="Path_43356" data-name="Path 43356" d="M81.506,38.884c-.228.094-.545.029-.637.362-.3-.032-.461-.228-.38-.49.059-.194.32-.2.506-.135a3.666,3.666,0,0,1,.512.262" transform="translate(16.397 7.863)" fill="#a09996"/>
    <path id="Path_43357" data-name="Path 43357" d="M45.389,37.078l-.309.166a.757.757,0,0,1,.014-.165h.295" transform="translate(9.186 7.555)" fill="#cfc6c0"/>
    <path id="Path_43358" data-name="Path 43358" d="M63.243,33.81a.364.364,0,0,1-.215.339.339.339,0,0,1,.215-.339" transform="translate(12.843 6.889)" fill="#9e7463"/>
    <path id="Path_43359" data-name="Path 43359" d="M81.156,29.126a7.042,7.042,0,0,1-1.813,5.27,5.684,5.684,0,0,1-8.6-.084,7.148,7.148,0,0,1,.491-9.767,5.77,5.77,0,0,1,5.866-1.3,5.893,5.893,0,0,1,3.953,4.874,8.406,8.406,0,0,1,.1,1.005" transform="translate(14.07 4.675)"/>
    <path id="Path_43360" data-name="Path 43360" d="M58.69,29.152a7.107,7.107,0,0,1-1.4,4.843,5.722,5.722,0,0,1-9.525-.3,6.93,6.93,0,0,1-.347-7.27A6.111,6.111,0,0,1,54.2,23.15c2.043.37,4.076,2.741,4.42,5.168.049.345.06.7.071.834" transform="translate(9.486 4.693)"/>
    <path id="Path_43361" data-name="Path 43361" d="M25.141,126.617c-.595-2.937-.8-5.942-1.162-8.918q-1.721-14.126-3.343-28.268c-.382-3.334-.917-6.65-1.093-10.014-2.786-11.742-3.214-23.87-4.519-35.855a12.94,12.94,0,0,1,.471-3.84c-.143-1.209.53-2.132.9-3.143.282-.774,1.029-.911,1.709-1.033a55.859,55.859,0,0,1,7.436-.631c10.668-.454,21.342-.584,32.015-.773q22.926-.406,45.854-.81c7.513-.141,15.024-.343,22.536-.518a6.382,6.382,0,0,1,2.465.237,2.176,2.176,0,0,1,1.676,2.039c.975,5.59.047,11.159-.206,16.725-.206,4.535-.513,9.066-.8,13.6-.254,4.06-.575,8.117-.727,12.187a4.67,4.67,0,0,1-.791,2.816q-.892,14.173-1.779,28.344c-.374,6.084-.752,12.165-1.353,18.226-.07.7-.2,1.4-.308,2.1-.488,1-1.343,1.028-2.174,1.027a32.677,32.677,0,0,1-6.514-.264,9.817,9.817,0,0,0-2.018-.067c-10.821.057-21.635-.054-32.434-1.021-3.247-.29-6.518-.2-9.775-.3-5.226-.149-10.448-.474-15.679-.507-9.062-.055-18.12-.433-27.185-.326a3.818,3.818,0,0,1-3.207-1.009" transform="translate(3.055 6.684)" fill="#eee"/>
    <path id="Path_43362" data-name="Path 43362" d="M108.51,80.028c.289-2.629.153-5.3.545-7.917a4.257,4.257,0,0,0,.052-.884,75.471,75.471,0,0,1,.38-7.595c.137-3.585.392-7.171.605-10.756.211-3.526.372-7.06.654-10.573.2-2.541.077-5.075.283-7.6-.051,2.056,1.08,3.46,2.079,4.943q12.845,19.037,25.962,37.832a5.5,5.5,0,0,1,1.124,1.975,5.208,5.208,0,0,1-1.879.2c-9.677.241-19.353.426-29.032.313-.258,0-.515.039-.773.06" transform="translate(22.111 7.072)" fill="#818181"/>
    <path id="Path_43363" data-name="Path 43363" d="M23.423,110.736c6.249.693,12.52.035,18.769.371,6.155.331,12.315.093,18.459.4,3,.153,6.01-.045,8.979.327,3.209.4,6.429-.045,9.6.377,2.21.295,4.449-.07,6.627.571a5.421,5.421,0,0,0,1.239.058c8.637.453,17.281.232,25.92.431,2.522.058,5.053.25,7.584.282a2.925,2.925,0,0,0,1.81-.354c.132,1.737-.832,3.114-1.217,4.684a1.891,1.891,0,0,1-1.747,1.275,9.458,9.458,0,0,1-1.4.055q-37.207-.011-74.413-.041c-4.349-.006-8.7-.166-13.045-.313-1.5-.051-2.994-.247-4.485-.432-1.191-.148-1.848-.821-2.07-2.247a38.843,38.843,0,0,1-.612-5.446" transform="translate(4.773 22.564)" fill="#818181"/>
    <path id="Path_43364" data-name="Path 43364" d="M18.55,38.55a69.961,69.961,0,0,0,.414,7.93c.183,2.505.4,5.023.8,7.515.337,2.135.438,4.318.709,6.468.512,4.068.886,8.156,1.4,12.224a36.444,36.444,0,0,1,.726,5.558c-.48-1.288-.484-1.307-1.662-1.053-5.031,1.081-10.059,2.184-15.092,3.26q-2.058.441-4.134.773c-.542.088-1.223.372-1.6-.237-.348-.565.2-1.088.419-1.584,3.593-8.062,7.225-16.1,10.8-24.174,2.448-5.536,4.817-11.118,7.223-16.679" transform="translate(0 7.855)" fill="#818181"/>
    <path id="Path_43365" data-name="Path 43365" d="M13.643,68.509c-.046.087-.077.223-.141.246s-.172-.051-.259-.082a1.124,1.124,0,0,1,.161-.259c.1-.087.19-.039.238.1" transform="translate(2.698 13.932)" fill="#876f43"/>
    <path id="Path_43366" data-name="Path 43366" d="M93.3,102.4c.265-1.089,1.178-.935,1.79-.992,1.641-.152,3.286-.152,4.931-.4,1.219-.183,1.4.054,1.355,1.42-.072,2.016.49,3.97.335,5.991-.1,1.343-.09,1.42-1.246,1.436-2.018.026-4.035-.014-6.051.017-.782.011-1.154-.317-1.113-1.24.07-1.6-.485-3.139-.317-4.749.054-.515-.09-1.077.32-1.49.908.548.809,1.556.856,2.487.185,3.64.182,3.656,3.267,3.637,3.375-.02,3.085.354,3.1-3.532.008-2.74-.037-2.7-2.48-2.473-1.575.15-3.178.545-4.746-.116" transform="translate(18.941 20.571)" fill="#cfbc75"/>
    <path id="Path_43367" data-name="Path 43367" d="M88.137,109.793c-.776,0-1.553-.02-2.329.006-.708.024-1.038-.3-1.041-1.142a32.24,32.24,0,0,0-.268-5.468c-.2-1.12.185-1.512,1.183-1.559,1.034-.048,2.07-.013,3.106-.018.414,0,.828-.013,1.242-.013.554,0,1.139-.624,1.632-.124.515.522.249,1.343.255,2.031a27.219,27.219,0,0,1-.277,5.289c-.138.745-.408,1.008-1.018,1-.828-.014-1.656,0-2.485,0Z" transform="translate(17.208 20.638)" fill="#cfbd76"/>
    <path id="Path_43368" data-name="Path 43368" d="M31.262,105.257c-1.042,0-1.918.006-2.793,0-.249,0-.54.048-.69-.262-.16-.333.06-.567.238-.76a30.029,30.029,0,0,1,3.036-3.28,7.691,7.691,0,0,0,.935-.923c1.082-1.228.945-1.268,2.02-.034.876,1.005,1.757,2,2.625,3.019a4.116,4.116,0,0,1,.567.833c.347.693.226.979-.437,1.048a7.366,7.366,0,0,1-1.241.012c-.778-.052-1.146.306-1.115,1.235.035,1.062-.022,2.128.011,3.19.028.9-.278,1.263-1.083,1.282-1.366.034-1.538-.047-1.726-1.068a25.139,25.139,0,0,1-.348-4.289" transform="translate(5.649 20.191)" fill="#818181"/>
    <path id="Path_43369" data-name="Path 43369" d="M93.245,102.272a5.06,5.06,0,0,1,2.445-.348c1.36.185,2.663-.379,4.006-.36,1.24.018,1.3.077,1.321,1.514.019,1.6-.012,3.2.007,4.793.011.832-.313,1.166-1.028,1.157-1.709-.023-3.419-.016-5.128,0-.609,0-.931-.225-1.011-1a22.949,22.949,0,0,1-.3-3.868,3.624,3.624,0,0,0-.306-1.891Z" transform="translate(19 20.695)" fill="#818181"/>
    <path id="Path_43370" data-name="Path 43370" d="M91.193,105.33c0,.767,0,1.535,0,2.3,0,.861-.343,1.324-1.121,1.323-1.29,0-2.582,0-3.873,0-.449,0-.9-.13-.87-.738.069-1.6-.437-3.136-.365-4.742.04-.878.276-1.28,1.088-1.282a13.212,13.212,0,0,0,4.154-.29c.593-.193.994.162.988.944,0,.826,0,1.653,0,2.479Z" transform="translate(17.312 20.755)" fill="#818181"/>
  </g>
</svg>
