<svg id="You_Can_Try_Later" data-name="You Can Try Later" xmlns="http://www.w3.org/2000/svg" xmlns:xlink="http://www.w3.org/1999/xlink" width="208.19" height="119.12" viewBox="0 0 208.19 119.12">
  <defs>
    <clipPath id="clip-path">
      <rect id="Rectangle_26237" data-name="Rectangle 26237" width="208.19" height="119.12" fill="none"/>
    </clipPath>
  </defs>
  <g id="Group_40627" data-name="Group 40627" clip-path="url(#clip-path)">
    <path id="Path_46181" data-name="Path 46181" d="M541.815,301.6l-2.442-7.3h1.043l1.167,3.6c.319.984.6,1.872.8,2.728h.022c.21-.846.521-1.766.855-2.718l1.268-3.61h1.029l-2.674,7.3Z" transform="translate(-342.871 -187.078)" fill="#f08718"/>
    <path id="Path_46182" data-name="Path 46182" d="M531.233,295.521a8.958,8.958,0,1,1,8.956-8.956,8.97,8.97,0,0,1-8.956,8.956m0-16.865a7.907,7.907,0,1,0,7.9,7.909,7.913,7.913,0,0,0-7.9-7.909" transform="translate(-331.999 -176.469)" fill="#f08718"/>
    <path id="Path_46183" data-name="Path 46183" d="M228.814,0h-57.9V11.836h11v95.373h-11v11.836h57.9c13.014,0,21.394-8.234,21.394-21.613V21.613C250.208,8.234,241.828,0,228.814,0m7.844,97.432c0,6.518-2.14,9.778-7.488,9.778h-33.7V11.836h33.7c5.348,0,7.488,3.259,7.488,9.777Z" transform="translate(-108.65)" fill="#f08718"/>
    <path id="Path_46184" data-name="Path 46184" d="M11.762.018V11.854H25.828v85.6c0,6.518-1.887,9.777-7.033,9.777H0v11.836H21.883c11.321,0,17.5-6.347,17.5-18.354V11.854h11.15V.018Z" transform="translate(0 -0.011)" fill="#f08718"/>
    <path id="Path_46185" data-name="Path 46185" d="M465.3,14.284a4.483,4.483,0,0,0-2.09-2.018.464.464,0,0,1-.228-.435l.04-11.813h-6.35l.04,11.813a.464.464,0,0,1-.228.435,4.481,4.481,0,0,0-2.09,2.018c-.9,1.614-1.26,8.531-1.26,8.531v93.659a3.714,3.714,0,0,0,.849,1.939,1.846,1.846,0,0,0,1.432.649h8.864a1.846,1.846,0,0,0,1.432-.649,3.715,3.715,0,0,0,.849-1.939V22.815s-.362-6.917-1.26-8.531" transform="translate(-288.05 -0.011)" fill="#f08718"/>
    <path id="Path_46186" data-name="Path 46186" d="M333.7,165.766a19.5,19.5,0,0,1,6.044-6.666.32.32,0,0,1,.439.084c.684,1.774-2.216,3.38-1.859,4.059,0,0,2.809-1.631,5.186-2.964a31.154,31.154,0,0,0,.493,4.039c.245,1.775.466,3.55.617,5.334a16.413,16.413,0,0,1-4.794,2.675c-.545.13-4.75,1.936-6.684-1.146-1.164-1.855-.308-4,.558-5.414" transform="translate(-211.413 -101.105)" fill="#ef9d7f"/>
    <path id="Path_46187" data-name="Path 46187" d="M294.031,181.592s-19.643,20.849-20.11,21.338-2.229,1.261-2.724,2.576a6.729,6.729,0,0,0,3.85,8.593c2.745,1.044,4.217-.239,5.939-2.652L298.8,187.116Z" transform="translate(-172.134 -115.435)" fill="#ef9d7f"/>
    <path id="Path_46188" data-name="Path 46188" d="M342.4,196.018c.274,0,.451-.016.471-.018l-.024-.255a6.338,6.338,0,0,1-2.65-.379l-.1.235a6.173,6.173,0,0,0,2.3.416" transform="translate(-216.195 -124.192)" fill="#343b54"/>
    <path id="Path_46189" data-name="Path 46189" d="M351.019,170.494h8.427l.862-15.324h-10.15Z" transform="translate(-222.59 -98.639)" fill="#fff"/>
    <path id="Path_46190" data-name="Path 46190" d="M360.265,155.9l.041-.733h-10.15l.023.407Z" transform="translate(-222.589 -98.639)" fill="#d3e1ed"/>
    <path id="Path_46191" data-name="Path 46191" d="M350.333,171.56l-.379-6.744h10.3l-.379,6.744Z" transform="translate(-222.46 -104.771)" fill="#7a4d5c"/>
    <path id="Path_46192" data-name="Path 46192" d="M359.879,151.781l.2,1.235H349.311l.2-1.235Z" transform="translate(-222.052 -96.485)" fill="#7a4d5c"/>
    <path id="Path_46193" data-name="Path 46193" d="M352.237,147.74h8.315l.274,1.71h-8.864Z" transform="translate(-223.737 -93.916)" fill="#7a4d5c"/>
    <rect id="Rectangle_26231" data-name="Rectangle 26231" width="8.787" height="0.255" transform="translate(128.263 55.169)" fill="#1b2c47"/>
    <path id="Path_46194" data-name="Path 46194" d="M354.51,169.666a2.356,2.356,0,1,1,2.35,2.526,2.445,2.445,0,0,1-2.35-2.526m.255,0a2.1,2.1,0,1,0,2.094-2.27,2.191,2.191,0,0,0-2.094,2.27" transform="translate(-225.357 -106.248)" fill="#1b2c47"/>
    <path id="Path_46195" data-name="Path 46195" d="M345.246,161.821a3.664,3.664,0,0,1-.368-.477,22.662,22.662,0,0,1,2.686-2.245.32.32,0,0,1,.439.085c.5,1.295-.908,2.5-1.568,3.319a2.051,2.051,0,0,1-1.189-.682" transform="translate(-219.234 -101.105)" fill="#ef9d7f"/>
    <rect id="Rectangle_26232" data-name="Rectangle 26232" width="13.499" height="11.346" transform="matrix(0.832, -0.554, 0.554, 0.832, 87.885, 70.867)" fill="#ef9d7f"/>
    <path id="Path_46196" data-name="Path 46196" d="M233.588,151.232s-5.2-11.53-12.559-15.61c-9.811-5.441-16.723,3.1-11.347,11.261,0,0,5.052,7.862,11.071,15.357,3.595.591,13.272-10.342,12.835-11.008" transform="translate(-132.098 -85.124)" fill="#3ebaa8"/>
    <path id="Path_46197" data-name="Path 46197" d="M418.992,282l3.912,4.564-4.974,4.776-8.535-5.392,1.673-5.383Z" transform="translate(-260.247 -178.35)" fill="#ef9d7f"/>
    <path id="Path_46198" data-name="Path 46198" d="M423.17,294.481s3.868,4.425,6.935,5.222,7.5,1.641,7.449,6.376H409.4c.189-4.43.822-8.05,2.411-9.927a17.508,17.508,0,0,0,4.529,0c1.282-.5,5.166-2.973,6.833-1.668" transform="translate(-260.247 -186.959)" fill="#e7eef7"/>
    <path id="Path_46199" data-name="Path 46199" d="M416.263,303.488a19.429,19.429,0,0,0,3.057-.24l-.045-.251a18.065,18.065,0,0,1-5.3.064l-.042.252a14.5,14.5,0,0,0,2.334.176" transform="translate(-263.128 -192.61)" fill="#1b2c47"/>
    <path id="Path_46200" data-name="Path 46200" d="M482.017,318.793h.255v-1.84a4.2,4.2,0,0,0-2.2-2.846l-.133.217a3.961,3.961,0,0,1,2.083,2.649Z" transform="translate(-305.087 -199.673)" fill="#1b2c47"/>
    <path id="Path_46201" data-name="Path 46201" d="M445.423,300.1a3.492,3.492,0,0,1,2.008-.895l-.031-.254a3.671,3.671,0,0,0-2.164.975Z" transform="translate(-283.03 -190.039)" fill="#1b2c47"/>
    <path id="Path_46202" data-name="Path 46202" d="M447.485,301.9a3.485,3.485,0,0,1,2.007-.895l-.031-.254a3.664,3.664,0,0,0-2.163.975Z" transform="translate(-284.341 -191.186)" fill="#1b2c47"/>
    <path id="Path_46203" data-name="Path 46203" d="M449.606,303.724a3.492,3.492,0,0,1,2.008-.895l-.031-.254a3.67,3.67,0,0,0-2.164.975Z" transform="translate(-285.689 -192.343)" fill="#1b2c47"/>
    <rect id="Rectangle_26233" data-name="Rectangle 26233" width="28.159" height="1.84" transform="translate(149.149 117.28)" fill="#1b2c47"/>
    <path id="Path_46204" data-name="Path 46204" d="M447.333,306.506a2.169,2.169,0,0,0,.9-1.6,2.029,2.029,0,0,0-.634-1.417l-4.861-3.773-.157.2,4.854,3.767a1.8,1.8,0,0,1,.542,1.22,1.93,1.93,0,0,1-.809,1.4Z" transform="translate(-281.342 -190.526)" fill="#1b2c47"/>
    <path id="Path_46205" data-name="Path 46205" d="M412.856,314.585c.075-3.405-1.559-4.176-1.628-4.207l-.105.233c.016.007,1.549.748,1.478,3.969Z" transform="translate(-261.345 -197.303)" fill="#1b2c47"/>
    <path id="Path_46206" data-name="Path 46206" d="M231.573,211.663l-14.618,19.825a16.862,16.862,0,0,0,13.717,6.208,19.448,19.448,0,0,0,14.518-7.109l18.567-20.9,23.622,24.607,11.278-11.215L269.32,189.536c-4.042-4.143-9.524-3.579-13.917,0Z" transform="translate(-137.915 -118.642)" fill="#1b2c47"/>
    <path id="Path_46207" data-name="Path 46207" d="M403.779,282l3.912,4.564-4.974,4.776-8.535-5.392,1.673-5.383Z" transform="translate(-250.576 -178.35)" fill="#ef9d7f"/>
    <path id="Path_46208" data-name="Path 46208" d="M407.956,294.481s3.868,4.425,6.935,5.222,7.5,1.641,7.449,6.376H394.182c.189-4.43.822-8.05,2.411-9.927a17.508,17.508,0,0,0,4.529,0c1.282-.5,5.166-2.973,6.834-1.668" transform="translate(-250.576 -186.959)" fill="#fff"/>
    <path id="Path_46209" data-name="Path 46209" d="M401.05,303.488a19.428,19.428,0,0,0,3.056-.24l-.045-.251a18.064,18.064,0,0,1-5.3.064l-.042.252a14.5,14.5,0,0,0,2.334.176" transform="translate(-253.458 -192.61)" fill="#1b2c47"/>
    <path id="Path_46210" data-name="Path 46210" d="M445.3,310.926a5.026,5.026,0,0,1,3.818-.524l.068-.246a5.2,5.2,0,0,0-4.036.564Z" transform="translate(-282.978 -197.047)" fill="#1b2c47"/>
    <path id="Path_46211" data-name="Path 46211" d="M466.8,318.793h.255v-1.84a4.2,4.2,0,0,0-2.2-2.846l-.133.217a3.961,3.961,0,0,1,2.083,2.649Z" transform="translate(-295.417 -199.673)" fill="#1b2c47"/>
    <path id="Path_46212" data-name="Path 46212" d="M430.212,300.1a3.487,3.487,0,0,1,2.007-.895l-.031-.254a3.664,3.664,0,0,0-2.163.975Z" transform="translate(-273.36 -190.039)" fill="#1b2c47"/>
    <path id="Path_46213" data-name="Path 46213" d="M432.271,301.9a3.492,3.492,0,0,1,2.008-.895l-.031-.254a3.667,3.667,0,0,0-2.164.975Z" transform="translate(-274.669 -191.186)" fill="#1b2c47"/>
    <path id="Path_46214" data-name="Path 46214" d="M434.393,303.724a3.488,3.488,0,0,1,2.007-.895l-.031-.254a3.667,3.667,0,0,0-2.163.975Z" transform="translate(-276.018 -192.343)" fill="#1b2c47"/>
    <rect id="Rectangle_26234" data-name="Rectangle 26234" width="28.159" height="1.84" transform="translate(143.606 117.28)" fill="#1b2c47"/>
    <path id="Path_46215" data-name="Path 46215" d="M432.119,306.506a2.168,2.168,0,0,0,.9-1.6,2.031,2.031,0,0,0-.634-1.417l-4.862-3.773-.157.2,4.855,3.767a1.806,1.806,0,0,1,.542,1.22,1.928,1.928,0,0,1-.809,1.4Z" transform="translate(-271.671 -190.526)" fill="#1b2c47"/>
    <path id="Path_46216" data-name="Path 46216" d="M397.643,314.585c.076-3.405-1.558-4.176-1.628-4.207l-.105.233c.016.007,1.549.748,1.478,3.969Z" transform="translate(-251.674 -197.303)" fill="#1b2c47"/>
    <path id="Path_46217" data-name="Path 46217" d="M217.022,211.2c-1.409,7.062-6.852,13.8-15.283,20.292a16.862,16.862,0,0,0,13.717,6.208,19.448,19.448,0,0,0,14.518-7.109l18.567-20.9,23.623,24.607,11.277-11.215L254.1,189.536c-4.043-4.143-9.525-3.579-13.918,0Z" transform="translate(-128.242 -118.642)" fill="#223551"/>
    <path id="Path_46218" data-name="Path 46218" d="M328.108,242.6l1.822-4.66-.238-.093-1.576,4.031-.964-2.627-.24.088Z" transform="translate(-207.814 -151.198)" fill="#1a202d"/>
    <rect id="Rectangle_26235" data-name="Rectangle 26235" width="16.086" height="0.255" transform="translate(141.706 113.353) rotate(-46.596)" fill="#1a202d"/>
    <path id="Path_46219" data-name="Path 46219" d="M265.582,69.989a23.913,23.913,0,0,1,1.756,2.175,11.311,11.311,0,0,1-3.849,7.677c-3.7,3.5-.242-8.255-.242-8.255Z" transform="translate(-166.408 -44.491)" fill="#343b54"/>
    <path id="Path_46220" data-name="Path 46220" d="M234.449,67.408c-.969,3.249-.969,19.714-8.338,19.877a10.1,10.1,0,0,1-2.255-.316c.114,1.915.2,5.949.2,5.949-8.4,3.285-11.577-1.81-11.609-6.619l.737-9.406,3.991-10.716,6.748-3.857,6.3,2.485,3.084,2.386c.072.013,1.288-1.4,1.141.217" transform="translate(-135.049 -39.616)" fill="#ef9d7f"/>
    <path id="Path_46221" data-name="Path 46221" d="M212.363,55.006a8.9,8.9,0,0,1,4.083-4.218,10.287,10.287,0,0,1,5.209-.679,20.866,20.866,0,0,1,5.639,1.576c1.133.469,2.239,1,3.33,1.56.857-2.058,7.225-1.558,6.4,3.485a6,6,0,0,1-5.855,4.745c-5.7-.028-12.273-2.881-12.273-2.881-.485,3.372-.959,6.806-2.093,6.846a2.045,2.045,0,0,0-1.089-2.445c-2.968-1.211-4.8,2.561-1.77,5.632a3.327,3.327,0,0,1-3.237.6c-3.414-7.844-2.263-12.964,1.655-14.225" transform="translate(-132.658 -31.805)" fill="#343b54"/>
    <path id="Path_46222" data-name="Path 46222" d="M256.97,99.516a4.9,4.9,0,0,0,1.449-.678c.221-.266-.345-2.612-.7-3.986l-.248.064a19.286,19.286,0,0,1,.745,3.771,5.115,5.115,0,0,1-1.323.588Z" transform="translate(-163.302 -60.295)" fill="#343b54"/>
    <path id="Path_46223" data-name="Path 46223" d="M253.062,112.031a4.792,4.792,0,0,0,1.615-.278l-.093-.237a4.13,4.13,0,0,1-3.656-.416l-.154.2a3.754,3.754,0,0,0,2.287.727" transform="translate(-159.414 -70.625)" fill="#343b54"/>
    <path id="Path_46224" data-name="Path 46224" d="M248.851,94.58a.552.552,0,1,1-.18-.759.552.552,0,0,1,.18.759" transform="translate(-157.541 -59.589)" fill="#343b54"/>
    <path id="Path_46225" data-name="Path 46225" d="M265.375,96.2a.552.552,0,1,1-.18-.759.552.552,0,0,1,.18.759" transform="translate(-168.045 -60.62)" fill="#343b54"/>
    <path id="Path_46226" data-name="Path 46226" d="M249.044,90.585l.1-.237a3.367,3.367,0,0,0-2.23-.062l.07.245a3.124,3.124,0,0,1,2.065.053" transform="translate(-156.956 -57.293)" fill="#343b54"/>
    <path id="Path_46227" data-name="Path 46227" d="M266.055,92.372l.124-.223a3.183,3.183,0,0,0-1.859-.4l.024.254a2.912,2.912,0,0,1,1.71.371" transform="translate(-168.024 -58.314)" fill="#343b54"/>
    <path id="Path_46228" data-name="Path 46228" d="M234.106,120.528l.05-.25c-4.19-.836-5.287-5.318-5.3-5.362l-.248.058c.011.047,1.146,4.686,5.5,5.555" transform="translate(-145.324 -73.05)" fill="#343b54"/>
    <path id="Path_46229" data-name="Path 46229" d="M223.033,91.974l.172-.189c-1.144-1.041-1.358-2.232-.978-2.872.312-.525.985-.655,1.845-.356l.084-.241c-.968-.337-1.773-.164-2.148.466-.434.728-.22,2.058,1.026,3.191" transform="translate(-140.996 -56.034)" fill="#343b54"/>
    <path id="Path_46230" data-name="Path 46230" d="M223.632,94.283l.252-.039c0-.031-.127-.752-1.6-.831l-.014.255c1.246.066,1.361.609,1.363.615" transform="translate(-141.293 -59.381)" fill="#343b54"/>
    <path id="Path_46231" data-name="Path 46231" d="M217.592,254.059c-2.915,9.285-7.147,17.453-13.758,23.6A7.434,7.434,0,0,1,201.1,273.7l15-20.883Z" transform="translate(-127.833 -160.714)" fill="#00c4a3"/>
    <path id="Path_46232" data-name="Path 46232" d="M186.65,126.986s-13.817,5.457-14.318,20.075a122.819,122.819,0,0,0,8.713,45.446c.459,1.13,1.144,1.414,2,1.062,7.085-4.492,14.41-14.829,21.788-26.483,0,0,.15-24.143-.612-27.647s-5.645-6.983-5.645-6.983c-4.81,1.364-8.654-1.993-11.927-5.471" transform="translate(-109.549 -80.723)" fill="#00c4a3"/>
    <path id="Path_46233" data-name="Path 46233" d="M257.249,174.972l.255-.016a101.227,101.227,0,0,0-1.948-15.321l-.247.062a101.036,101.036,0,0,1,1.94,15.275" transform="translate(-162.296 -101.478)" fill="#343b54"/>
    <path id="Path_46234" data-name="Path 46234" d="M289.2,211.835a2.252,2.252,0,0,0,.457-.04l-.056-.249a2.992,2.992,0,0,1-2.053-.454l-.135.216a3.381,3.381,0,0,0,1.786.527" transform="translate(-182.704 -134.187)" fill="#343b54"/>
    <path id="Path_46235" data-name="Path 46235" d="M306.1,139.354h7.616a.717.717,0,0,0,.657-.761l2.416-17.149a.716.716,0,0,0-.657-.76h-7.616a.716.716,0,0,0-.657.76l-2.416,17.149a.717.717,0,0,0,.657.761" transform="translate(-194.164 -76.717)" fill="#1b2c47"/>
    <path id="Path_46236" data-name="Path 46236" d="M308.923,139.259V139a1.7,1.7,0,0,1-1.551-1.816l2.414-15.334c0-.859.4-1.266,1.229-1.266v-.255a1.346,1.346,0,0,0-1.483,1.5l-2.414,15.334a1.959,1.959,0,0,0,1.8,2.092" transform="translate(-195.23 -76.493)" fill="#7d9cbc"/>
    <path id="Path_46237" data-name="Path 46237" d="M215.024,168.18l-.067.052c-1.222.914-2.482,1.775-3.709,2.682-1.363,1.007-2.7,2.053-4.04,3.085s-2.676,2.037-4.063,2.988c-.39.267-.785.526-1.182.782,5.1,7.977,13.267,20.444,15.2,21.7,6.718,6.013,13.259-1.4,10.437-7.472-.942-3.453-7.192-15.406-12.577-23.811" transform="translate(-128.384 -106.909)" fill="#ef9d7f"/>
    <path id="Path_46238" data-name="Path 46238" d="M263.591,167.135c1.8-2.295,6.518-.768,4.71,3.013,0,0-10.241,24.036-15.272,28.1-4.923,4.538-12.964,1.41-9.463-7.333.891-3.3,20.026-23.783,20.026-23.783" transform="translate(-154.286 -105.558)" fill="#ef9d7f"/>
    <path id="Path_46239" data-name="Path 46239" d="M212.8,165.671s-4.383-12.312-11.574-17.1c-9.583-6.386-17.324,1.888-12.488,10.739,0,0,4.529,8.514,10.074,16.724,3.623.892,14.38-9.638,13.987-10.36" transform="translate(-119.039 -93.005)" fill="#00c4a3"/>
    <path id="Path_46240" data-name="Path 46240" d="M201.1,198.681l.212-.143c-5.477-8.11-10.022-16.628-10.067-16.713l-.226.119c.046.085,4.6,8.614,10.081,16.736" transform="translate(-121.429 -115.584)" fill="#343b54"/>
    <path id="Path_46241" data-name="Path 46241" d="M218.037,165.5l.24-.086a53.958,53.958,0,0,0-3.1-6.773c-1.827-3.367-4.789-7.9-8.525-10.392-3.948-2.631-8.05-3.007-10.973-1l.145.211c2.833-1.941,6.829-1.565,10.687,1.007,3.692,2.459,6.628,6.958,8.44,10.3a53.761,53.761,0,0,1,3.084,6.74" transform="translate(-124.391 -92.791)" fill="#343b54"/>
    <rect id="Rectangle_26236" data-name="Rectangle 26236" width="6.725" height="0.255" transform="matrix(0.622, -0.783, 0.783, 0.622, 91.281, 82.089)" fill="#343b54"/>
    <path id="Path_46242" data-name="Path 46242" d="M262.243,197.2l7.044-7.926-.191-.17-7.044,7.926Z" transform="translate(-166.583 -120.209)" fill="#343b54"/>
    <path id="Path_46243" data-name="Path 46243" d="M311.209,141.354c.233-.356-.114-2.654-.91-1.921,0,0-4.861,5.067-6.622,5.581-2.284.768-2.359-2.166-2.359-2.166l-.112-1.129c-.075-.755-3.062,3.608-3.327,4.9l-1.057,2.987c-.7,2.1,1.006,5.828,3.88,5.188a53.685,53.685,0,0,0,7.748-2.5c1.968-1.05,3.606-4.879,3.606-4.879.411-.743.278-2.513-.136-1.954.647-.846.111-1.975-.53-1.921a1.605,1.605,0,0,0-.181-2.189" transform="translate(-188.587 -88.544)" fill="#ef9d7f"/>
    <path id="Path_46244" data-name="Path 46244" d="M323.259,149.566a27.925,27.925,0,0,0,4.855-4.669l-.2-.161a27.683,27.683,0,0,1-4.812,4.626Z" transform="translate(-205.393 -92.006)" fill="#343b54"/>
    <path id="Path_46245" data-name="Path 46245" d="M329.268,160.044a21.44,21.44,0,0,0,3.486-4.125l-.213-.141a21.178,21.178,0,0,1-3.443,4.076Z" transform="translate(-209.202 -99.026)" fill="#343b54"/>
    <path id="Path_46246" data-name="Path 46246" d="M326.35,154.862a20.572,20.572,0,0,0,3.964-4.1l-.208-.149a20.3,20.3,0,0,1-3.916,4.052Z" transform="translate(-207.354 -95.741)" fill="#343b54"/>
    <path id="Path_46247" data-name="Path 46247" d="M298.705,169.673l.181-.18a6.588,6.588,0,0,1-1.443-3.194l-.253.037a6.718,6.718,0,0,0,1.514,3.336" transform="translate(-188.92 -105.714)" fill="#343b54"/>
  </g>
</svg>
