<svg id="About_Us" data-name="About Us" xmlns="http://www.w3.org/2000/svg" width="35" height="35" viewBox="0 0 35 35">
  <rect id="emotion-line" width="35" height="35" fill="none"/>
  <path id="Path_42013" data-name="Path 42013" d="M15.25,13.925a6.625,6.625,0,0,1,6.625,6.625V28.5h-2.65V20.55a3.975,3.975,0,0,0-3.742-3.968l-.233-.007a3.975,3.975,0,0,0-3.968,3.742l-.007.233V28.5H8.625V20.55a6.625,6.625,0,0,1,6.625-6.625ZM6.638,17.9a4.693,4.693,0,0,1,1.073.125,7.879,7.879,0,0,0-.4,2.087L7.3,20.55v.114a1.979,1.979,0,0,0-.472-.106l-.191-.008a1.987,1.987,0,0,0-1.978,1.8l-.009.191V28.5H2V22.538A4.637,4.637,0,0,1,6.638,17.9Zm17.225,0A4.637,4.637,0,0,1,28.5,22.538V28.5H25.85V22.538a1.987,1.987,0,0,0-1.8-1.978l-.191-.009a2,2,0,0,0-.663.113V20.55a7.9,7.9,0,0,0-.409-2.523A4.531,4.531,0,0,1,23.863,17.9ZM6.638,9.95a3.312,3.312,0,1,1-2.342.97A3.313,3.313,0,0,1,6.638,9.95Zm17.225,0a3.312,3.312,0,1,1-2.342.97A3.313,3.313,0,0,1,23.863,9.95ZM6.638,12.6a.662.662,0,1,0,.468.194A.663.663,0,0,0,6.638,12.6Zm17.225,0a.662.662,0,1,0,.469.194A.663.663,0,0,0,23.863,12.6ZM15.25,2A5.3,5.3,0,1,1,11.5,3.552,5.3,5.3,0,0,1,15.25,2Zm0,2.65a2.65,2.65,0,1,0,1.874.776A2.65,2.65,0,0,0,15.25,4.65Z" transform="translate(2 2)" fill="#00BCBF"/>
</svg>
