<svg id="address_other_outline" data-name="address other outline" xmlns="http://www.w3.org/2000/svg" width="24" height="24" viewBox="0 0 24 24">
  <rect id="Rectangle_25646" data-name="Rectangle 25646" width="24" height="24" fill="none"/>
  <g id="Vector" transform="translate(-4925 -21338)" fill="none" stroke-linecap="round" fill-rule="evenodd">
    <path d="M4936.848,21343a6.131,6.131,0,0,0-5.848,6.213,9.272,9.272,0,0,0,4.78,8.189,2.736,2.736,0,0,0,2.135,0,9.271,9.271,0,0,0,4.781-8.189A6.132,6.132,0,0,0,4936.848,21343Zm0,7.309a1.461,1.461,0,1,0-1.462-1.461A1.465,1.465,0,0,0,4936.848,21350.309Z" stroke="none"/>
    <path d="M 4936.84765625 21344 C 4935.58154296875 21344 4934.37353515625 21344.55078125 4933.44580078125 21345.552734375 C 4932.52685546875 21346.544921875 4932 21347.87890625 4932 21349.212890625 C 4932 21352.263671875 4933.7607421875 21355.318359375 4936.18994140625 21356.490234375 C 4936.39892578125 21356.576171875 4936.6201171875 21356.619140625 4936.84765625 21356.619140625 C 4937.07568359375 21356.619140625 4937.296875 21356.576171875 4937.50537109375 21356.490234375 C 4939.93505859375 21355.318359375 4941.6962890625 21352.263671875 4941.6962890625 21349.212890625 C 4941.6962890625 21347.87890625 4941.16943359375 21346.544921875 4940.25 21345.552734375 C 4939.322265625 21344.55078125 4938.11376953125 21344 4936.84765625 21344 M 4936.84765625 21351.30859375 C 4935.490234375 21351.30859375 4934.3857421875 21350.205078125 4934.3857421875 21348.84765625 C 4934.3857421875 21347.490234375 4935.490234375 21346.38671875 4936.84765625 21346.38671875 C 4938.20556640625 21346.38671875 4939.31005859375 21347.490234375 4939.31005859375 21348.84765625 C 4939.31005859375 21350.205078125 4938.20556640625 21351.30859375 4936.84765625 21351.30859375 M 4936.84765625 21343 C 4940.0791015625 21343 4942.6962890625 21345.92578125 4942.6962890625 21349.212890625 C 4942.6962890625 21352.50390625 4940.83203125 21356.01171875 4937.9150390625 21357.40234375 C 4937.2353515625 21357.69140625 4936.4599609375 21357.69140625 4935.7802734375 21357.40234375 C 4932.8642578125 21356.01171875 4931 21352.50390625 4931 21349.212890625 C 4931 21345.92578125 4933.61669921875 21343 4936.84765625 21343 Z M 4936.84765625 21350.30859375 C 4937.65234375 21350.30859375 4938.31005859375 21349.65234375 4938.31005859375 21348.84765625 C 4938.31005859375 21348.044921875 4937.65234375 21347.38671875 4936.84765625 21347.38671875 C 4936.0439453125 21347.38671875 4935.3857421875 21348.044921875 4935.3857421875 21348.84765625 C 4935.3857421875 21349.65234375 4936.0439453125 21350.30859375 4936.84765625 21350.30859375 Z" stroke="none" fill="#707070"/>
  </g>
</svg>
