<svg id="address_office_outline" data-name="address office outline" xmlns="http://www.w3.org/2000/svg" width="24" height="24" viewBox="0 0 24 24">
  <rect id="Rectangle_25644" data-name="Rectangle 25644" width="24" height="24" fill="none"/>
  <g id="Group_39227" data-name="Group 39227" transform="translate(-1928.836 -5592.506)">
    <path id="Vector" d="M2602.62,7967H2588" transform="translate(-654.164 -2354.874)" fill="none" stroke="#6a6a6a" stroke-linecap="round" stroke-width="1"/>
    <path id="Vector-2" data-name="Vector" d="M2597,7949.193c.015-.907.08-1.418.431-1.762.424-.431,1.111-.431,2.493-.431h1.462c1.382,0,2.069,0,2.493.431s.431,1.111.431,2.493v11.7" transform="translate(-656.585 -2349.493)" fill="none" stroke="#6a6a6a" stroke-linecap="round" stroke-width="1"/>
    <path id="Vector-3" data-name="Vector" d="M2589,7962.428v-9.5c0-1.381,0-2.068.431-2.492s1.111-.432,2.493-.432h2.924c1.382,0,2.069,0,2.493.432s.431,1.111.431,2.492v9.5" transform="translate(-654.433 -2350.301)" fill="none" stroke="#6a6a6a" stroke-linecap="round" stroke-width="1"/>
    <path id="Vector-4" data-name="Vector" d="M2595,7966.193V7964" transform="translate(-656.047 -2354.066)" fill="none" stroke="#6a6a6a" stroke-linecap="round" stroke-width="1"/>
    <path id="Vector-5" data-name="Vector" d="M2592,7953h4.386" transform="translate(-655.24 -2351.108)" fill="none" stroke="#6a6a6a" stroke-linecap="round" stroke-width="1"/>
    <path id="Vector-6" data-name="Vector" d="M2592,7956h4.386" transform="translate(-655.24 -2351.915)" fill="none" stroke="#6a6a6a" stroke-linecap="round" stroke-width="1"/>
    <path id="Vector-7" data-name="Vector" d="M2592,7959h4.386" transform="translate(-655.24 -2352.722)" fill="none" stroke="#6a6a6a" stroke-linecap="round" stroke-width="1"/>
  </g>
</svg>
