<svg id="address_home_fil" data-name="address home fil" xmlns="http://www.w3.org/2000/svg" width="24" height="24" viewBox="0 0 24 24">
  <rect id="Rectangle_25642" data-name="Rectangle 25642" width="24" height="24" fill="none"/>
  <g id="Group_39223" data-name="Group 39223" transform="translate(-1856.914 -5593.237)">
    <path id="Vector" d="M5269.693,7948h-1.828a.362.362,0,0,0-.366.366v.044l2.559,2.046v-2.09A.362.362,0,0,0,5269.693,7948Z" transform="translate(-3396.169 -2349.762)" fill="#00bcbf"/>
    <path id="Vector-2" data-name="Vector" d="M5262.749,7954.164a.914.914,0,1,1,.914.914A.914.914,0,0,1,5262.749,7954.164Z" transform="translate(-3394.891 -2351.175)" fill="#00bcbf" fill-rule="evenodd"/>
    <path id="Vector-3" data-name="Vector" d="M5267.5,7953.844l.57.46a.551.551,0,0,0,.688-.862l-5.943-4.751a2.745,2.745,0,0,0-3.421,0l-5.944,4.751a.552.552,0,0,0,.688.862l.57-.46v7.521h-.914a.548.548,0,0,0,0,1.1h14.621a.548.548,0,0,0,0-1.1h-.914Zm-8.406-1.067a2.01,2.01,0,1,1,2.01,2.01A2.009,2.009,0,0,1,5259.1,7952.776Zm2.046,2.741a10.436,10.436,0,0,1,1.243.044,1.506,1.506,0,0,1,1.418,1.418,9.1,9.1,0,0,1,.043,1.155v3.23h-1.1v-3.106a9.085,9.085,0,0,0-.037-1.133c-.029-.234-.081-.308-.125-.351s-.116-.1-.351-.125a17.539,17.539,0,0,0-2.266,0c-.234.029-.308.081-.351.125s-.1.116-.125.351a9.085,9.085,0,0,0-.037,1.133v3.106h-1.1v-3.143a10.44,10.44,0,0,1,.044-1.243,1.505,1.505,0,0,1,1.418-1.418,10.44,10.44,0,0,1,1.243-.044Z" transform="translate(-3392.336 -2349.787)" fill="#00bcbf" fill-rule="evenodd"/>
    <path id="Vector-4" data-name="Vector" d="M5262.749,7954.164a.914.914,0,1,1,.914.914A.914.914,0,0,1,5262.749,7954.164Z" transform="translate(-3394.891 -2351.175)" fill="#00bcbf" fill-rule="evenodd"/>
  </g>
</svg>
