<svg id="address_home_outline" data-name="address home outline" xmlns="http://www.w3.org/2000/svg" width="24" height="24" viewBox="0 0 24 24">
  <rect id="Rectangle_25643" data-name="Rectangle 25643" width="24" height="24" fill="none"/>
  <g id="Group_39226" data-name="Group 39226" transform="translate(-1888.526 -5593.274)">
    <path id="Vector" d="M2862.62,7967H2848" transform="translate(-954.473 -2354.836)" fill="none" stroke="#6a6a6a" stroke-linecap="round" stroke-width="1"/>
    <path id="Vector-2" data-name="Vector" d="M2848,7954.074l5.943-4.752a2.178,2.178,0,0,1,2.734,0l5.943,4.752" transform="translate(-954.473 -2349.951)" fill="none" stroke="#6a6a6a" stroke-linecap="round" stroke-linejoin="round" stroke-width="1"/>
    <path id="Vector-3" data-name="Vector" d="M2861.5,7949.827v-1.462a.362.362,0,0,1,.365-.366h1.828a.362.362,0,0,1,.365.366v3.655" transform="translate(-958.105 -2349.725)" fill="none" stroke="#6a6a6a" stroke-linecap="round" stroke-linejoin="round" stroke-width="1"/>
    <path id="Vector-4" data-name="Vector" d="M2850,7963.638V7954.5" transform="translate(-955.012 -2351.474)" fill="none" stroke="#6a6a6a" stroke-linecap="round" stroke-width="1"/>
    <path id="Vector-5" data-name="Vector" d="M2866,7963.638V7954.5" transform="translate(-959.315 -2351.474)" fill="none" stroke="#6a6a6a" stroke-linecap="round" stroke-width="1"/>
    <path id="Vector-6" data-name="Vector" d="M2855,7964.848v-3.655c0-1.031,0-1.55.322-1.872s.841-.321,1.871-.321,1.55,0,1.872.321.322.841.322,1.872v3.655" transform="translate(-956.356 -2352.685)" fill="none" stroke="#6a6a6a" stroke-linecap="round" stroke-linejoin="round" stroke-width="1"/>
    <g id="Vector-7" data-name="Vector" transform="translate(-956.625 -2350.936)" fill="none" stroke-linecap="round" stroke-linejoin="round">
      <path d="M2857.462,7955.424a1.462,1.462,0,1,1,1.462-1.462A1.466,1.466,0,0,1,2857.462,7955.424Z" stroke="none"/>
      <path d="M 2857.4619140625 7954.423828125 C 2857.71240234375 7954.423828125 2857.923828125 7954.21240234375 2857.923828125 7953.9619140625 C 2857.923828125 7953.71142578125 2857.71240234375 7953.49951171875 2857.4619140625 7953.49951171875 C 2857.21142578125 7953.49951171875 2857 7953.71142578125 2857 7953.9619140625 C 2857 7954.21240234375 2857.21142578125 7954.423828125 2857.4619140625 7954.423828125 M 2857.4619140625 7955.423828125 C 2856.65771484375 7955.423828125 2856 7954.765625 2856 7953.9619140625 C 2856 7953.1572265625 2856.65771484375 7952.49951171875 2857.4619140625 7952.49951171875 C 2858.26611328125 7952.49951171875 2858.923828125 7953.1572265625 2858.923828125 7953.9619140625 C 2858.923828125 7954.765625 2858.26611328125 7955.423828125 2857.4619140625 7955.423828125 Z" stroke="none" fill="#6a6a6a"/>
    </g>
  </g>
</svg>
