<svg id="address_office_fill" data-name="address office fill" xmlns="http://www.w3.org/2000/svg" width="24" height="24" viewBox="0 0 24 24">
  <rect id="Rectangle_25645" data-name="Rectangle 25645" width="24" height="24" fill="none"/>
  <path id="Vector" d="M5003.3,7947h1.462c1.381,0,2.069,0,2.493.431s.432,1.111.432,2.493v11.148h.73a.548.548,0,1,1,0,1.1H4993.8a.548.548,0,1,1,0-1.1h.731v-8.955c0-1.381,0-2.069.431-2.493s1.111-.431,2.493-.431h2.924c1.382,0,2.069,0,2.493.431s.431,1.111.431,2.493v8.955h1.1v-9.021a13.067,13.067,0,0,0-.065-1.681,2.347,2.347,0,0,0-2.208-2.208,12.562,12.562,0,0,0-1.652-.066,1.205,1.205,0,0,1,.336-.666C5001.232,7947,5001.919,7947,5003.3,7947Zm-7.127,4.386a.551.551,0,0,1,.548-.548h4.387a.548.548,0,0,1,0,1.1h-4.387A.551.551,0,0,1,4996.174,7951.386Zm0,2.193a.552.552,0,0,1,.548-.549h4.387a.548.548,0,0,1,0,1.1h-4.387A.551.551,0,0,1,4996.174,7953.579Zm0,2.192a.551.551,0,0,1,.548-.548h4.387a.548.548,0,0,1,0,1.1h-4.387A.552.552,0,0,1,4996.174,7955.771Zm2.741,3.107a.551.551,0,0,1,.548.548v1.645h-1.1v-1.645A.552.552,0,0,1,4998.915,7958.879Z" transform="translate(-4989.25 -7943)" fill="#00bcbf" fill-rule="evenodd"/>
</svg>
