<svg xmlns="http://www.w3.org/2000/svg" xmlns:xlink="http://www.w3.org/1999/xlink" width="24" height="24" viewBox="0 0 24 24">
  <defs>
    <clipPath id="clip-path">
      <rect id="Rectangle_21379" data-name="Rectangle 21379" width="9.93" height="15.264" fill="none"/>
    </clipPath>
  </defs>
  <g id="arabic" transform="translate(-3195 -1435)">
    <g id="Group_23882" data-name="Group 23882" transform="translate(-21 8)">
      <rect id="Rectangle_21380" data-name="Rectangle 21380" width="24" height="24" transform="translate(3216 1427)" fill="none"/>
      <g id="Group_23880" data-name="Group 23880" transform="translate(576 103)">
        <g id="Group_23875" data-name="Group 23875" transform="translate(2647 1328)">
          <g id="Group_23874" data-name="Group 23874" transform="translate(0 0)" clip-path="url(#clip-path)">
            <path id="Path_42791" data-name="Path 42791" d="M1.381,1.734A3.757,3.757,0,0,1,2.81.46,4.2,4.2,0,0,1,4.769,0,5.108,5.108,0,0,1,6.22.2,4.317,4.317,0,0,1,7.349.695L7.3,2.772a7.329,7.329,0,0,0-1.073-.3,6.038,6.038,0,0,0-1.229-.126,3.369,3.369,0,0,0-1.13.178,1.874,1.874,0,0,0-.8.508,1.131,1.131,0,0,0-.3.782,1.123,1.123,0,0,0,.274.765,1.717,1.717,0,0,0,.743.477,3.321,3.321,0,0,0,1.06.175,5.279,5.279,0,0,0,1.234-.139l2.363-.5V6.8l-1.886.468A11.124,11.124,0,0,0,3.088,8.61,2.246,2.246,0,0,0,1.937,10.5a1.687,1.687,0,0,0,.474,1.2,3.021,3.021,0,0,0,1.394.764,8.259,8.259,0,0,0,2.258.266q.642,0,1.324-.061t1.338-.169q.657-.11,1.2-.248v2.354a8.215,8.215,0,0,1-.969.278q-.534.122-1.116.2T6.7,15.221q-.56.043-1.055.043a7.41,7.41,0,0,1-2.989-.556A4.512,4.512,0,0,1,.695,13.145,4.059,4.059,0,0,1,0,10.782a4.225,4.225,0,0,1,.912-2.6A6.077,6.077,0,0,1,3.571,6.273l.009.478a2.91,2.91,0,0,1-1.456-.517,2.964,2.964,0,0,1-.947-1.125A3.369,3.369,0,0,1,.843,3.614a3.323,3.323,0,0,1,.538-1.88" transform="translate(0 0)" fill="#fff"/>
          </g>
        </g>
      </g>
    </g>
  </g>
</svg>