<svg xmlns="http://www.w3.org/2000/svg" width="74.089" height="74.089" viewBox="0 0 74.089 74.089">
  <g id="call" transform="translate(-4161.476 -7069.32)">
    <rect id="Rectangle_21354" data-name="Rectangle 21354" width="74.089" height="74.089" rx="11" transform="translate(4161.476 7069.32)" fill="#f4f4f4"/>
    <g id="Group_23663" data-name="Group 23663" transform="translate(4179.791 7088.466)">
      <path id="Path_42580" data-name="Path 42580" d="M1029.094,1340.51a33.48,33.48,0,0,0-6.718-4.495c-2.239-1.124-2.423-1.216-4.179.091-1.174.874-1.948,1.649-3.322,1.357s-4.354-1.94-6.968-4.545-4.362-5.669-4.653-7.043.5-2.139,1.365-3.313c1.216-1.656,1.124-1.931.083-4.171a30.7,30.7,0,0,0-4.5-6.7c-1.581-1.557-1.581-1.282-2.6-.858a15.092,15.092,0,0,0-2.377,1.265,7.092,7.092,0,0,0-2.862,3.014c-.572,1.224-.828,4.087,2.124,9.448a46.888,46.888,0,0,0,9.312,12.378,51.112,51.112,0,0,0,12.4,9.274c5.96,3.338,8.241,2.689,9.473,2.114a7.063,7.063,0,0,0,3.022-2.847,15.1,15.1,0,0,0,1.266-2.381C1030.385,1342.084,1030.659,1342.084,1029.094,1340.51Z" transform="translate(-992 -1308.002)" fill="#ceeeef"/>
      <path id="Path_42581" data-name="Path 42581" d="M1032.065,1334.247a30.163,30.163,0,0,0-5.985-4c-2-1-2.164-1.083-3.729.083-1.041.774-1.74,1.465-2.964,1.207a15.849,15.849,0,0,1-6.21-4.054,16.507,16.507,0,0,1-4.146-6.277c-.258-1.216.441-1.906,1.215-2.947,1.082-1.482,1-1.724.075-3.721a27.281,27.281,0,0,0-4.012-5.969c-1.407-1.4-1.407-1.149-2.314-.774a13.675,13.675,0,0,0-2.123,1.132,6.34,6.34,0,0,0-2.551,2.689c-.51,1.082-.738,3.638,1.893,8.416a41.8,41.8,0,0,0,8.3,11.038,45.682,45.682,0,0,0,11.055,8.266c5.311,2.972,7.35,2.4,8.441,1.882a6.31,6.31,0,0,0,2.7-2.539,13.554,13.554,0,0,0,1.132-2.115C1033.214,1335.653,1033.464,1335.653,1032.065,1334.247Z" transform="translate(-993.173 -1307.498)" fill="none" stroke="#00bcbf" stroke-linecap="round" stroke-linejoin="round" stroke-miterlimit="10" stroke-width="1.5"/>
    </g>
  </g>
</svg>
