<svg id="Contact_Preferences" data-name="Contact Preferences" xmlns="http://www.w3.org/2000/svg" width="35" height="35" viewBox="0 0 35 35">
  <rect id="emotion-line" width="35" height="35" fill="none"/>
  <path id="Path_42012" data-name="Path 42012" d="M26.889,23.786A1.222,1.222,0,0,1,25.676,25H3.657a1.214,1.214,0,0,1-1.212-1.214V22.556h22V8.256l-9.778,8.8-12.222-11V4.222A1.222,1.222,0,0,1,3.667,3h22a1.222,1.222,0,0,1,1.222,1.222ZM5.419,5.444l9.247,8.323,9.247-8.323ZM0,17.667H9.778v2.444H0Zm0-6.111H6.111V14H0Z" transform="translate(4 4)" fill="#09121f"/>
</svg>
