<svg id="delete_outline" data-name="delete outline" xmlns="http://www.w3.org/2000/svg" width="24" height="24" viewBox="0 0 24 24">
  <rect id="delete-bin-2-line" width="24" height="24" fill="none"/>
  <g id="Group">
    <path id="Vector" d="M0,0H24V24H0Z" fill="none"/>
    <path id="Vector-2" data-name="Vector" d="M15,4h5V6H18V19a1,1,0,0,1-1,1H3a1,1,0,0,1-1-1V6H0V4H5V1A1,1,0,0,1,6,0h8a1,1,0,0,1,1,1Zm1,2H4V18H16Zm-4.586,6,1.768,1.768-1.414,1.414L10,13.414,8.232,15.182,6.818,13.768,8.586,12,6.818,10.232,8.232,8.818,10,10.586l1.768-1.768,1.414,1.414ZM7,2V4h6V2Z" transform="translate(2 2)" fill="#F67373"/>
  </g>
</svg>
