<svg xmlns="http://www.w3.org/2000/svg" width="24.456" height="22.008" viewBox="0 0 24.456 22.008">
  <path id="heart_empty" data-name="heart empty" d="M28.555,33.948a4.725,4.725,0,0,0-6.946,4.171c0,3.281,2.448,6.433,5.167,8.88a33.7,33.7,0,0,0,3.668,2.847c.477.321.878.574,1.165.749.287-.175.687-.428,1.165-.749A33.7,33.7,0,0,0,36.442,47c2.72-2.448,5.167-5.6,5.167-8.88A4.725,4.725,0,0,0,32.522,36.3l-.71,1.7a.22.22,0,0,1-.406,0l-.71-1.7A4.725,4.725,0,0,0,28.555,33.948Zm3.054,17.8c-.483.863-.484.863-.484.863h0l-.008,0-.027-.015-.1-.057c-.086-.05-.209-.123-.365-.218-.312-.19-.754-.467-1.283-.824a35.691,35.691,0,0,1-3.887-3.018c-2.775-2.5-5.822-6.159-5.822-10.35a6.7,6.7,0,0,1,11.978-4.137,6.7,6.7,0,0,1,11.978,4.137c0,4.191-3.047,7.853-5.822,10.35a35.706,35.706,0,0,1-3.887,3.018c-.529.356-.971.634-1.283.824-.156.095-.279.168-.365.218l-.1.057-.021.012-.006,0-.008,0h0S32.092,52.608,31.609,51.745Zm0,0,.483.863-.483.271-.483-.271Z" transform="translate(-19.381 -31.157)" fill="#1B202B" stroke="#1B202B" stroke-width="0.5" fill-rule="evenodd"/>
</svg>