<svg id="instagram" xmlns="http://www.w3.org/2000/svg" width="24" height="24" viewBox="0 0 24 24">
  <rect id="Rectangle_25648" data-name="Rectangle 25648" width="24" height="24" fill="none"/>
  <g id="Group_39231" data-name="Group 39231" transform="translate(4.547 4.547)">
    <path id="Path_36390" data-name="Path 36390" d="M183.372,10.689c1.99,0,2.226.008,3.011.044a4.117,4.117,0,0,1,1.384.256,2.467,2.467,0,0,1,1.414,1.415,4.125,4.125,0,0,1,.257,1.384c.036.786.044,1.021.044,3.012s-.008,2.226-.044,3.011a4.125,4.125,0,0,1-.257,1.384,2.467,2.467,0,0,1-1.414,1.415,4.117,4.117,0,0,1-1.384.256c-.786.036-1.021.044-3.011.044s-2.226-.008-3.011-.044a4.117,4.117,0,0,1-1.384-.256,2.467,2.467,0,0,1-1.414-1.415,4.126,4.126,0,0,1-.257-1.384c-.036-.786-.043-1.021-.043-3.011s.007-2.226.043-3.012a4.126,4.126,0,0,1,.257-1.384,2.467,2.467,0,0,1,1.414-1.415,4.117,4.117,0,0,1,1.384-.256c.786-.036,1.021-.044,3.011-.044m0-1.343c-2.024,0-2.278.009-3.073.045a5.457,5.457,0,0,0-1.809.346,3.806,3.806,0,0,0-2.179,2.18,5.435,5.435,0,0,0-.346,1.809c-.036.795-.045,1.049-.045,3.074s.009,2.278.045,3.073a5.443,5.443,0,0,0,.346,1.809,3.807,3.807,0,0,0,2.179,2.179,5.457,5.457,0,0,0,1.809.346c.795.036,1.049.045,3.073.045s2.278-.009,3.073-.045a5.458,5.458,0,0,0,1.809-.346,3.812,3.812,0,0,0,2.18-2.179,5.48,5.48,0,0,0,.346-1.809c.036-.795.044-1.049.044-3.073s-.009-2.279-.044-3.074a5.471,5.471,0,0,0-.346-1.809,3.81,3.81,0,0,0-2.18-2.18,5.457,5.457,0,0,0-1.809-.346c-.795-.036-1.049-.045-3.073-.045" transform="translate(-175.919 -9.346)" fill="#00bcbf"/>
    <path id="Path_36391" data-name="Path 36391" d="M184.822,14.423a3.827,3.827,0,1,0,3.827,3.827,3.827,3.827,0,0,0-3.827-3.827m0,6.311a2.484,2.484,0,1,1,2.484-2.484,2.484,2.484,0,0,1-2.484,2.484" transform="translate(-177.369 -10.797)" fill="#00bcbf"/>
    <path id="Path_36392" data-name="Path 36392" d="M192.46,13.852a.895.895,0,1,1-.9-.894.895.895,0,0,1,.9.894" transform="translate(-180.134 -10.378)" fill="#00bcbf"/>
  </g>
</svg>
