<svg id="Notification" xmlns="http://www.w3.org/2000/svg" width="24" height="24" viewBox="0 0 24 24">
  <rect id="Rectangle_25635" data-name="Rectangle 25635" width="24" height="24" fill="none"/>
  <path id="Icon" d="M413.076,143.09l.02-1.853A5.982,5.982,0,0,1,418.786,135a6.07,6.07,0,0,1,5.773,6.328l-.021,1.762a5.6,5.6,0,0,0,.95,3.081c.208.313.008.859-.346.859H412.431c-.358,0-.557-.562-.342-.875A5.418,5.418,0,0,0,413.076,143.09Zm7.972,6.408a3.7,3.7,0,0,1-4.525,0" transform="translate(-406.5 -130.5)" fill="none" stroke="#00bcbf" stroke-linecap="round" stroke-linejoin="round" stroke-width="2"/>
</svg>
