<svg id="Orders" xmlns="http://www.w3.org/2000/svg" width="24" height="24" viewBox="0 0 24 24">
  <rect id="Rectangle_25633" data-name="Rectangle 25633" width="24" height="24" fill="none"/>
  <g id="box" transform="translate(2 2)">
    <rect id="vuesax_linear_box" data-name="vuesax/linear/box" width="20.117" height="20.117" fill="none"/>
    <g id="vuesax_linear_box-2" data-name="vuesax/linear/box">
      <g id="box-2" data-name="box">
        <g id="Group" transform="translate(2.027 1.696)">
          <g id="Group-2" data-name="Group" transform="translate(0.662 4.614)">
            <path id="Vector" d="M14.929.025,7.49,4.335,0,0" transform="translate(0)" fill="none" stroke="#00bcbf" stroke-linecap="round" stroke-linejoin="round" stroke-width="2"/>
            <path id="Vector-2" data-name="Vector" d="M0,7.694V0" transform="translate(7.49 4.326)" fill="none" stroke="#00bcbf" stroke-linecap="round" stroke-linejoin="round" stroke-width="2"/>
          </g>
          <path id="Vector-3" data-name="Vector" d="M9.916.407l4.53,2.519A4,4,0,0,1,16.312,6.09v4.793a4,4,0,0,1-1.866,3.164l-4.53,2.519a4.065,4.065,0,0,1-3.52,0l-4.53-2.519A4,4,0,0,1,0,10.883V6.09A4,4,0,0,1,1.866,2.926L6.4.407a4.008,4.008,0,0,1,3.52,0Z" transform="translate(0 0)" fill="none" stroke="#00bcbf" stroke-linecap="round" stroke-linejoin="round" stroke-width="2"/>
        </g>
        <path id="Vector-4" data-name="Vector" d="M0,0,8.05,4.648v3.1" transform="translate(6.37 3.478)" fill="none" stroke="#00bcbf" stroke-linecap="round" stroke-linejoin="round" stroke-width="2"/>
        <path id="Vector-5" data-name="Vector" d="M0,0H20.358V20.358H0Z" fill="none" opacity="0"/>
      </g>
    </g>
  </g>
</svg>
