<svg xmlns="http://www.w3.org/2000/svg" xmlns:xlink="http://www.w3.org/1999/xlink" width="30.459" height="78.705" viewBox="0 0 30.459 78.705">
  <defs>
    <filter id="Path_45447" x="0" y="0" width="30.459" height="78.705" filterUnits="userSpaceOnUse">
      <feOffset dy="3" input="SourceAlpha"/>
      <feGaussianBlur stdDeviation="3" result="blur"/>
      <feFlood flood-opacity="0.161"/>
      <feComposite operator="in" in2="blur"/>
      <feComposite in="SourceGraphic"/>
    </filter>
  </defs>
  <g id="Component_36_1" data-name="Component 36 – 1" transform="translate(9 6)">
    <g transform="matrix(1, 0, 0, 1, -9, -6)" filter="url(#Path_45447)">
      <path id="Path_45447-2" data-name="Path 45447" d="M157.771,219.266V184.59a51.932,51.932,0,0,1,1.168-9.742,4.694,4.694,0,0,1,1.941-2.3.572.572,0,0,0,.213-.5l-.038-13.488h5.894l-.036,13.487a.562.562,0,0,0,.209.5,4.715,4.715,0,0,1,1.94,2.3,51.593,51.593,0,0,1,1.168,9.743v34.677Z" transform="translate(-148.77 -152.56)" fill="#f08718"/>
    </g>
  </g>
</svg>
