<svg id="Privacy_policy" data-name="Privacy policy" xmlns="http://www.w3.org/2000/svg" width="24" height="24" viewBox="0 0 24 24">
  <rect id="Rectangle_25638" data-name="Rectangle 25638" width="24" height="24" fill="none"/>
  <path id="About_Us" data-name="About Us" d="M3.827,2H17.053a.789.789,0,0,1,.585.267.963.963,0,0,1,.242.645V20.5a.494.494,0,0,1-.05.218.443.443,0,0,1-.138.165.388.388,0,0,1-.193.072.379.379,0,0,1-.2-.038L10.44,17.539,3.582,20.917a.379.379,0,0,1-.2.038.388.388,0,0,1-.193-.072.442.442,0,0,1-.138-.165A.494.494,0,0,1,3,20.5V2.912a.963.963,0,0,1,.242-.645A.789.789,0,0,1,3.827,2Zm12.4,16.392V3.825H4.653V18.392l5.786-2.85Zm-5.786-5.9L8.01,13.9l.464-2.986L6.509,8.8l2.716-.436L10.44,5.65l1.215,2.716L14.37,8.8l-1.965,2.115.463,2.986Z" transform="translate(1.56 1.042)" fill="#00bcbf"/>
</svg>
