<svg id="My_Details" data-name="My Details" xmlns="http://www.w3.org/2000/svg" width="35" height="35" viewBox="0 0 35 35">
  <rect id="emotion-line" width="35" height="35" fill="none"/>
  <g id="Group_20316" data-name="Group 20316" transform="translate(1717.698 351.698)">
    <path id="Path_37053" data-name="Path 37053" d="M22.5,30.9V28.274a5.25,5.25,0,0,0-5.25-5.25H6.75a5.25,5.25,0,0,0-5.25,5.25V30.9" transform="translate(-1712.198 -352.973)" fill="none" stroke="#1f1f1f" stroke-width="1"/>
    <path id="Path_37054" data-name="Path 37054" d="M22.5,30.9V28.274a5.25,5.25,0,0,0-5.25-5.25H6.75a5.25,5.25,0,0,0-5.25,5.25V30.9" transform="translate(-1712.198 -352.973)" fill="none" stroke="#1f1f1f" stroke-linecap="round" stroke-linejoin="round" stroke-width="3"/>
    <path id="Path_37055" data-name="Path 37055" d="M19.174,6.75a5.25,5.25,0,1,1-5.25-5.25h0a5.25,5.25,0,0,1,5.249,5.25" transform="translate(-1714.123 -347.198)" fill="none" stroke="#1f1f1f" stroke-width="1"/>
    <path id="Path_37056" data-name="Path 37056" d="M19.174,6.75a5.25,5.25,0,1,1-5.25-5.25h0A5.25,5.25,0,0,1,19.174,6.75Z" transform="translate(-1714.123 -347.198)" fill="none" stroke="#1f1f1f" stroke-linecap="round" stroke-linejoin="round" stroke-width="3"/>
  </g>
</svg>
