<svg id="profile_outline" data-name="profile outline" xmlns="http://www.w3.org/2000/svg" width="24" height="24" viewBox="0 0 24 24">
  <rect id="contacts-line" width="24" height="24" transform="translate(0)" fill="none"/>
  <g id="Group">
    <path id="Vector" d="M0,0H24V24H0Z" fill="none"/>
    <path id="Vector-2" data-name="Vector" d="M17,6h5V8H17Zm-2,5h7v2H15Zm3,5h4v2H18ZM0,21a8,8,0,0,1,16,0H14A6,6,0,0,0,2,21Zm8-9a6,6,0,1,1,6-6A6,6,0,0,1,8,12Zm0-2A4,4,0,1,0,4,6,4,4,0,0,0,8,10Z" transform="translate(2 1)" fill="#03053d"/>
  </g>
</svg>
