<svg id="Rate_This_App" data-name="Rate This App" xmlns="http://www.w3.org/2000/svg" width="35" height="35" viewBox="0 0 35 35">
  <rect id="emotion-line" width="35" height="35" fill="none"/>
  <path id="Path_42014" data-name="Path 42014" d="M13.655,8.153c1.195-2.978,1.792-4.467,2.819-4.467S18.1,5.175,19.294,8.153l.056.139c.675,1.683,1.012,2.524,1.7,3.035s1.591.592,3.4.754l.326.029c2.955.265,4.433.4,4.749,1.337s-.781,1.939-2.976,3.935l-.732.666a6.682,6.682,0,0,0-1.925,2.178,3.041,3.041,0,0,0-.12.379,6.678,6.678,0,0,0,.318,2.89l.1.456c.6,2.695.9,4.042.375,4.623a1.52,1.52,0,0,1-.73.45c-.754.206-1.824-.666-3.963-2.41-1.405-1.145-2.108-1.717-2.914-1.846a3.034,3.034,0,0,0-.958,0c-.807.129-1.509.7-2.914,1.846-2.14,1.744-3.21,2.615-3.963,2.41a1.519,1.519,0,0,1-.73-.45c-.522-.581-.223-1.928.375-4.623l.1-.456a6.681,6.681,0,0,0,.318-2.89,3.041,3.041,0,0,0-.12-.379,6.681,6.681,0,0,0-1.925-2.178L6.4,17.383c-2.195-2-3.292-2.995-2.976-3.935s1.794-1.072,4.749-1.337l.326-.029c1.806-.162,2.708-.243,3.4-.754s1.025-1.353,1.7-3.035Z" transform="translate(1.126 0.814)" fill="none" stroke="#121212" stroke-width="2.5"/>
</svg>
