<svg xmlns="http://www.w3.org/2000/svg" width="26" height="26" viewBox="0 0 26 26">
  <g id="setting_icon" data-name="setting icon" transform="translate(1 1)">
    <path id="setting_icon-2" data-name="setting icon" d="M1076.76,708.755a2.321,2.321,0,0,1-.48.953,2.348,2.348,0,0,1-.867.629,2.278,2.278,0,0,1-1.053.168,2.329,2.329,0,0,1-1.027-.328,2.3,2.3,0,0,0-3.16,3.159,2.3,2.3,0,0,1-1.413,3.431,2.3,2.3,0,0,0,0,4.467,2.264,2.264,0,0,1,.947.488,2.182,2.182,0,0,1,.627.867,2.214,2.214,0,0,1,.173,1.057,2.3,2.3,0,0,1-.333,1.019,2.3,2.3,0,0,0,3.16,3.16,2.332,2.332,0,0,1,1.027-.331,2.3,2.3,0,0,1,1.053.168,2.349,2.349,0,0,1,.867.629,2.169,2.169,0,0,1,.48.953,2.307,2.307,0,0,0,4.48,0,2.17,2.17,0,0,1,.48-.953,2.346,2.346,0,0,1,.867-.628,2.278,2.278,0,0,1,1.053-.168,2.33,2.33,0,0,1,1.027.329,2.3,2.3,0,0,0,3.16-3.16,2.3,2.3,0,0,1-.333-1.019,2.218,2.218,0,0,1,.173-1.057,2.178,2.178,0,0,1,.627-.865,2.252,2.252,0,0,1,.947-.489,2.3,2.3,0,0,0,0-4.467,2.25,2.25,0,0,1-.947-.488,2.182,2.182,0,0,1-.627-.867,2.213,2.213,0,0,1-.173-1.057,2.313,2.313,0,0,1,.333-1.019,2.3,2.3,0,0,0-3.16-3.159,2.329,2.329,0,0,1-1.027.329,2.279,2.279,0,0,1-1.053-.168,2.334,2.334,0,0,1-.867-.629,2.17,2.17,0,0,1-.48-.953h0A2.307,2.307,0,0,0,1076.76,708.755Zm2.24,12.912a2.667,2.667,0,1,1,2.667-2.667A2.671,2.671,0,0,1,1079,721.667Z" transform="translate(-1067 -707)" fill="none" stroke="#fff" stroke-width="2"/>
  </g>
</svg>
