<svg xmlns="http://www.w3.org/2000/svg" width="23.335" height="25.374" viewBox="0 0 23.335 25.374">
  <g id="Group_40480" data-name="Group 40480" transform="translate(0 0.125)">
    <g id="Group_40483" data-name="Group 40483" transform="translate(0 0)">
      <path id="Path_45459" data-name="Path 45459" d="M23.335,15.51A11.667,11.667,0,1,1,11.668,3.843,11.667,11.667,0,0,1,23.335,15.51" transform="translate(0 -1.928)" fill="#fff"/>
      <path id="Path_45460" data-name="Path 45460" d="M16.811,5.258l1.98,6.227a5.285,5.285,0,0,1,2.589,0l2.011-6.227a10.009,10.009,0,0,0-6.58,0" transform="translate(-8.433 -2.358)" fill="#f0c323"/>
      <path id="Path_45461" data-name="Path 45461" d="M5.517,9.878l5.3,3.815A5.285,5.285,0,0,1,12.9,12.147l-2.1-6.2A10,10,0,0,0,5.517,9.878" transform="translate(-2.767 -2.984)" fill="#344d63"/>
      <path id="Path_45462" data-name="Path 45462" d="M23.391,42.228,21.412,36a5.285,5.285,0,0,1-2.589,0l-2.011,6.227a10.009,10.009,0,0,0,6.58,0" transform="translate(-8.433 -18.059)" fill="#129e8b"/>
      <path id="Path_45463" data-name="Path 45463" d="M10.824,40.526l2.105-6.185A5.291,5.291,0,0,1,10.846,32.8L5.53,36.619a10.007,10.007,0,0,0,5.294,3.907" transform="translate(-2.774 -16.454)" fill="#297fb8"/>
      <path id="Path_45464" data-name="Path 45464" d="M28.493,5.97l-2.01,6.217a5.287,5.287,0,0,1,2.107,1.506l5.257-3.9A10,10,0,0,0,28.493,5.97" transform="translate(-13.284 -2.994)" fill="#e87d24"/>
      <path id="Path_45465" data-name="Path 45465" d="M36.267,14.263l-5.306,3.813a5.291,5.291,0,0,1,.8,2.461l6.544-.018a10.008,10.008,0,0,0-2.04-6.256" transform="translate(-15.531 -7.154)" fill="#e14e3e"/>
      <path id="Path_45466" data-name="Path 45466" d="M38.306,27.352l-6.534,0a5.284,5.284,0,0,1-.786,2.467l5.323,3.806a10.005,10.005,0,0,0,2-6.27" transform="translate(-15.543 -13.718)" fill="#de2361"/>
      <path id="Path_45467" data-name="Path 45467" d="M3.019,33.621l5.306-3.813a5.291,5.291,0,0,1-.8-2.461l-6.544.018a10.008,10.008,0,0,0,2.04,6.256" transform="translate(-0.49 -13.718)" fill="#884a9d"/>
      <path id="Path_45468" data-name="Path 45468" d="M1.006,20.533l6.534,0a5.285,5.285,0,0,1,.786-2.467L3,14.263a10.005,10.005,0,0,0-2,6.27" transform="translate(-0.503 -7.154)" fill="#8f406d"/>
      <path id="Path_45469" data-name="Path 45469" d="M33.885,36.552l-5.259-3.877a5.285,5.285,0,0,1-2.1,1.521q1.015,3.111,2.03,6.221a10.007,10.007,0,0,0,5.325-3.865" transform="translate(-13.308 -16.39)" fill="#94a4a4"/>
      <path id="Path_45470" data-name="Path 45470" d="M23.391,22.969a4.1,4.1,0,1,1-4.1-4.1,4.1,4.1,0,0,1,4.1,4.1" transform="translate(-7.622 -9.466)" fill="#383838"/>
      <path id="Path_45471" data-name="Path 45471" d="M22.591,3.212c-.82-1.075-1.114-2.134-.73-2.653a.983.983,0,0,1,.683-.4h0a1.045,1.045,0,0,1,.8.411c.211.283-.071,1.538-.071,1.538a6.792,6.792,0,0,1-.686,1.1" transform="translate(-10.882 -0.081)" fill="#fff"/>
      <path id="Path_45472" data-name="Path 45472" d="M22.508.158a.962.962,0,0,1,.7.38c.352.472.061,1.488-.691,2.461C21.775,2,21.5.994,21.848.524a.919.919,0,0,1,.624-.365Zm0-.158h-.045A1.058,1.058,0,0,0,21.72.43c-.418.565-.093,1.7.792,2.828.919-1.11,1.239-2.254.821-2.814A1.11,1.11,0,0,0,22.508,0" transform="translate(-10.805 0)" fill="#58c278" stroke="#58c278" stroke-width="0.25"/>
      <path id="Path_45473" data-name="Path 45473" d="M22.627,27.08V24.6a3.717,3.717,0,0,1,.084-.7.335.335,0,0,1,.139-.165.04.04,0,0,0,.015-.035l0-.964h.421l0,.964a.04.04,0,0,0,.015.035.339.339,0,0,1,.139.164,3.681,3.681,0,0,1,.084.7V27.08Z" transform="translate(-11.35 -11.407)" fill="#fff"/>
    </g>
  </g>
</svg>
