<svg id="Terms_Confitions" data-name="Terms &amp; Confitions" xmlns="http://www.w3.org/2000/svg" width="24" height="24" viewBox="0 0 24 24">
  <rect id="Rectangle_25640" data-name="Rectangle 25640" width="24" height="24" fill="none"/>
  <g id="file-text-line" transform="translate(2 2)">
    <rect id="file-text-line-2" data-name="file-text-line" width="20.117" height="20.117" fill="none"/>
    <g id="Group">
      <path id="Vector" d="M0,0H20.358V20.358H0Z" fill="none"/>
      <path id="Vector-2" data-name="Vector" d="M15.268,5.089V16.111a.848.848,0,0,1-.842.854H.842A.842.842,0,0,1,0,16.123V.841A.852.852,0,0,1,.85,0h9.326Zm-1.7.848H9.331V1.7H1.7V15.268H13.572Zm-9.331-1.7H6.786v1.7H4.241Zm0,3.393h6.786v1.7H4.241Zm0,3.393h6.786v1.7H4.241Z" transform="translate(2.545 1.696)" fill="#00bcbf"/>
    </g>
  </g>
</svg>
