<svg id="tiktok" xmlns="http://www.w3.org/2000/svg" width="24" height="24" viewBox="0 0 24 24">
  <rect id="Rectangle_25649" data-name="Rectangle 25649" width="24" height="24" fill="none"/>
  <path id="icons8-tiktok-100" d="M19.754,10a.554.554,0,0,0-.554.553s-.006,2.7-.012,5.407c0,1.353-.006,2.708-.009,3.728s0,1.665,0,1.719a1.921,1.921,0,0,1-1.954,1.827,1.857,1.857,0,0,1,0-3.714c.035,0,.105.011.226.026a.554.554,0,0,0,.62-.551V16.668a.554.554,0,0,0-.519-.553c-.086-.005-.195-.016-.327-.016A5.277,5.277,0,1,0,22.5,21.376V16.364a4.658,4.658,0,0,0,2.919,1.053c.151,0,.3-.009.433-.022a.554.554,0,0,0,.5-.552V14.257a.554.554,0,0,0-.514-.553A3.588,3.588,0,0,1,22.529,10.5a.554.554,0,0,0-.551-.5Zm.553,1.108H21.57a4.625,4.625,0,0,0,3.676,3.57v1.587a3.578,3.578,0,0,1-2.838-1.583.554.554,0,0,0-1.017.305v6.389a4.17,4.17,0,1,1-4.431-4.116v1.205a2.943,2.943,0,0,0,.262,5.876,3.02,3.02,0,0,0,3.062-2.935c0,.027,0-.7,0-1.717s.006-2.375.009-3.728C20.3,13.532,20.306,11.578,20.307,11.108Z" transform="translate(-7.15 -6.327)" fill="#00bcbf"/>
</svg>
