<svg xmlns="http://www.w3.org/2000/svg" xmlns:xlink="http://www.w3.org/1999/xlink" width="66.547" height="66.563" viewBox="0 0 66.547 66.563">
  <defs>
    <filter id="Path_43227" x="0" y="0" width="66.547" height="66.563" filterUnits="userSpaceOnUse">
      <feOffset input="SourceAlpha"/>
      <feGaussianBlur stdDeviation="1.5" result="blur"/>
      <feFlood flood-opacity="0.161"/>
      <feComposite operator="in" in2="blur"/>
      <feComposite in="SourceGraphic"/>
    </filter>
  </defs>
  <g id="whatsapp" transform="translate(4.5 4.5)">
    <g id="whatsapp_icon" data-name="whatsapp icon" transform="translate(0 0)">
      <g transform="matrix(1, 0, 0, 1, -4.5, -4.5)" filter="url(#Path_43227)">
        <path id="Path_43227-2" data-name="Path 43227" d="M1095.669.789h-.131a28.711,28.711,0,0,0-28.708,28.716v.131a28.712,28.712,0,0,0,28.708,28.716h.131a28.713,28.713,0,0,0,28.708-28.716v-.131A28.713,28.713,0,0,0,1095.669.789Z" transform="translate(-1062.33 3.71)" fill="#00e510"/>
      </g>
      <path id="Path_43229" data-name="Path 43229" d="M1152.339,87.732a13.379,13.379,0,0,1-13.359-13.363,3.393,3.393,0,0,1,3.385-3.386,3.215,3.215,0,0,1,.563.048,3.308,3.308,0,0,1,1.127.405.182.182,0,0,1,.09.135l.781,4.907a.191.191,0,0,1-.047.157,3.37,3.37,0,0,1-1.591.99l-.294.083.11.284a9.973,9.973,0,0,0,5.609,5.609l.283.113.084-.295a3.37,3.37,0,0,1,.988-1.589.188.188,0,0,1,.128-.048.169.169,0,0,1,.032,0l4.906.778a.2.2,0,0,1,.137.093,3.438,3.438,0,0,1,.4,1.129,3.177,3.177,0,0,1,.047.561A3.391,3.391,0,0,1,1152.339,87.732Z" transform="translate(-1117.959 -50.531)" fill="#fdfdfd"/>
      <path id="Path_43228" data-name="Path 43228" d="M1138.657,53.853a18.129,18.129,0,1,0-33.51,11.09l-3.907,8.652,12.511-1.333A17.95,17.95,0,0,0,1120.6,73.6a18.54,18.54,0,0,0,1.9-.1c.565-.061,1.133-.149,1.7-.262a18.2,18.2,0,0,0,14.53-17.677v-.1c0-.545-.026-1.089-.073-1.617Zm-24.425,14.611-6.923.738,2.069-4.58-.414-.554c-.029-.041-.061-.081-.1-.127A14.469,14.469,0,0,1,1120.6,41a14.553,14.553,0,0,1,14.425,13.282c.032.4.05.8.05,1.2,0,.113,0,.224,0,.343a14.44,14.44,0,0,1-11.343,13.792,13.761,13.761,0,0,1-1.515.25,14.405,14.405,0,0,1-7.15-1.015c-.2-.078-.388-.163-.565-.25l-.262-.127Z" transform="translate(-1091.214 -26.688)" fill="#fdfdfd"/>
    </g>
  </g>
</svg>
